<svg width="64" height="64" viewBox="0 0 64 64" fill="none" xmlns="http://www.w3.org/2000/svg">
<g filter="url(#filter0_d_506_23751)">
<path d="M32 56C47.464 56 60 43.464 60 28C60 12.536 47.464 0 32 0C16.536 0 4 12.536 4 28C4 43.464 16.536 56 32 56Z" fill="white"/>
</g>
<path d="M32.0006 33.0668C32.09 33.0668 32.1809 33.0985 32.2528 33.1612C34.4486 35.0821 35.9702 37.6027 36.6529 40.4494L38.1172 46.5597C38.2206 46.9918 38.5648 47.183 38.8534 47.2186C39.139 47.2485 39.5197 47.149 39.7211 46.7547L42.6332 41.0918C43.4077 39.5833 43.8183 37.8882 43.8183 36.1884C43.8183 35.4428 43.7395 34.695 43.5854 33.9669L43.3157 32.6868C42.7128 29.837 43.056 26.8148 44.2805 24.1744L45.5356 21.4683C46.6295 19.1069 46.4176 16.292 44.9822 14.1242C43.2795 11.5583 40.2408 10.3051 37.2444 10.9371L32.0803 12.0203C32.0265 12.0309 31.9739 12.0309 31.9213 12.0203L26.7541 10.9371C23.7634 10.3111 20.7191 11.5583 19.0191 14.1242C17.581 16.292 17.3699 19.1069 18.464 21.4694L19.721 24.1734C20.9456 26.8148 21.2868 29.837 20.6856 32.6876L20.4134 33.9658C20.2598 34.6951 20.6829 34.4069 20.6829 35.1525C20.6829 35.8983 22.3572 35.5118 22.7144 36.1884L24.4999 35.5118C24.7024 35.9065 25.5957 35.1834 25.8816 35.1525C26.168 35.1169 27.3483 35.1525 27.3483 35.1525L28.926 34.6122C29.9975 35.1524 29.5509 35.0821 31.7476 33.1612C31.8205 33.0985 31.9096 33.0668 32.0006 33.0668ZM38.9619 48C38.8947 48 38.8294 47.9962 38.7595 47.9883C38.0767 47.9044 37.5311 47.4155 37.3672 46.7411L35.9032 40.6309C35.2847 38.0522 33.9384 35.7573 32.0006 33.9736C30.0628 35.7573 30.728 35.2929 29.6565 35.8304L28.585 35.1525C28.4241 35.8269 27.4849 35.7465 26.7995 35.8304C25.6289 35.9738 22.7144 37.1273 22.1566 36.5491C21.5989 35.9708 21.0851 36.1884 21.0851 36.1884C20.7703 35.8291 19.9299 36.0493 19.9299 35.5118C19.9299 34.7122 19.4958 34.5862 19.6586 33.8047L19.9299 32.5257C20.4977 29.84 20.1756 26.9902 19.021 24.5014L17.7659 21.7973C16.557 19.1898 16.7927 16.0855 18.3776 13.6943C20.2523 10.8638 23.6023 9.48234 26.9131 10.1777L32.0006 11.2449L37.0862 10.1777C40.3989 9.48234 43.7463 10.8638 45.622 13.6943C47.2088 16.0855 47.4418 19.1898 46.2345 21.7964L44.9776 24.5023C43.8232 26.9902 43.5008 29.84 44.0705 32.5257L44.3399 33.8058C44.5057 34.5861 44.5902 35.3888 44.5902 36.1884C44.5902 38.0126 44.1501 39.8302 43.3186 41.4479L40.4068 47.1105C40.123 47.6662 39.5696 48 38.9619 48Z" fill="#306CFE" stroke="#306CFE" stroke-miterlimit="22.9256"/>
<defs>
<filter id="filter0_d_506_23751" x="0" y="0" width="64" height="64" filterUnits="userSpaceOnUse" color-interpolation-filters="sRGB">
<feFlood flood-opacity="0" result="BackgroundImageFix"/>
<feColorMatrix in="SourceAlpha" type="matrix" values="0 0 0 0 0 0 0 0 0 0 0 0 0 0 0 0 0 0 127 0" result="hardAlpha"/>
<feOffset dy="4"/>
<feGaussianBlur stdDeviation="2"/>
<feComposite in2="hardAlpha" operator="out"/>
<feColorMatrix type="matrix" values="0 0 0 0 0 0 0 0 0 0 0 0 0 0 0 0 0 0 0.25 0"/>
<feBlend mode="normal" in2="BackgroundImageFix" result="effect1_dropShadow_506_23751"/>
<feBlend mode="normal" in="SourceGraphic" in2="effect1_dropShadow_506_23751" result="shape"/>
</filter>
</defs>
</svg>
