<svg width="64" height="64" viewBox="0 0 64 64" fill="none" xmlns="http://www.w3.org/2000/svg">
<g filter="url(#filter0_d_506_23966)">
<path d="M32 56C47.464 56 60 43.464 60 28C60 12.536 47.464 0 32 0C16.536 0 4 12.536 4 28C4 43.464 16.536 56 32 56Z" fill="white"/>
</g>
<path d="M19.9814 29.3737C19.8097 29.3737 19.656 29.255 19.6188 29.0819C19.4167 28.1731 19.0934 27.3175 18.6522 26.54C16.8536 23.3548 14.3207 17.3477 17.5623 12.8863C20.8598 8.35017 26.2069 10.1555 29.1032 11.6343C30.219 12.2044 31.4969 12.2044 32.6146 11.6343C34.9665 10.4326 39.4099 8.80233 42.7259 11.3916C42.8889 11.5185 42.9187 11.7522 42.7908 11.9143C42.6628 12.0775 42.4302 12.1051 42.2681 11.9791C39.2777 9.64381 35.1498 11.1765 32.9509 12.2971C31.622 12.9782 30.0958 12.9782 28.7638 12.2971C26.082 10.9265 21.1369 9.23703 18.1639 13.3249C15.1687 17.4478 17.5903 23.1445 19.3028 26.173C19.7792 27.0156 20.1305 27.9402 20.3464 28.9218C20.391 29.1217 20.263 29.321 20.06 29.3655C20.0349 29.3709 20.0073 29.3737 19.9814 29.3737Z" fill="#787878" stroke="#787878" stroke-miterlimit="22.9256"/>
<path d="M23.2565 48.0003C22.0359 48.0003 21.1295 46.7824 20.5623 44.3738C20.5133 44.1737 20.6376 43.9736 20.8366 43.9254C21.0388 43.878 21.2389 44.0023 21.2851 44.2024C21.8033 46.3895 22.554 47.4108 23.4863 47.2318C26.2591 46.7165 27.1459 40.6065 27.4019 38.0034C27.5815 36.1705 29.068 34.7877 30.8575 34.7877C32.6518 34.7877 34.1363 36.1705 34.3162 38.0034C34.569 40.6065 35.4613 46.7176 38.2312 47.2318C38.578 47.2986 38.8754 47.2132 39.159 46.9688C40.6928 45.6489 41.4108 40.0692 41.1247 31.6597C41.1199 31.534 41.1179 31.4088 41.1179 31.2845C41.1179 31.0787 41.2851 30.9121 41.4918 30.9121C41.6964 30.9121 41.8641 31.0787 41.8641 31.2845C41.8641 31.4015 41.8661 31.519 41.8686 31.6358C42.0801 37.8337 41.8641 45.6238 39.6447 47.5332C39.1869 47.9261 38.6659 48.0716 38.0942 47.965C34.9454 47.3792 33.9094 41.5176 33.5719 38.0767C33.433 36.6263 32.2662 35.5328 30.8575 35.5328C29.4516 35.5328 28.2848 36.6263 28.143 38.0767C27.8067 41.5176 26.7744 47.3792 23.6235 47.965C23.4975 47.9882 23.3741 48.0003 23.2565 48.0003Z" fill="#787878" stroke="#787878" stroke-miterlimit="22.9256"/>
<path d="M40.372 21.4726C42.435 22.174 44.0689 23.8071 44.7686 25.8661C45.4699 23.8071 47.1067 22.174 49.1677 21.4726C47.1067 20.771 45.4699 19.1374 44.7686 17.0752C44.0689 19.1374 42.435 20.771 40.372 21.4726ZM44.7686 28.4974C44.5647 28.4974 44.3967 28.3305 44.3967 28.1247C44.3967 24.6624 41.5777 21.845 38.1128 21.845C37.9059 21.845 37.741 21.6793 37.741 21.4726C37.741 21.2668 37.9059 21.1 38.1128 21.1C41.5777 21.1 44.3967 18.2809 44.3967 14.8158C44.3967 14.6091 44.5647 14.4434 44.7686 14.4434C44.9752 14.4434 45.1429 14.6091 45.1429 14.8158C45.1429 18.2809 47.962 21.1 51.4271 21.1C51.6338 21.1 51.8015 21.2668 51.8015 21.4726C51.8015 21.6793 51.6338 21.845 51.4271 21.845C47.962 21.845 45.1429 24.6624 45.1429 28.1247C45.1429 28.3305 44.9752 28.4974 44.7686 28.4974Z" fill="#306CFE" stroke="#306CFE" stroke-miterlimit="22.9256"/>
<path d="M18.1408 36.772C19.1379 37.2123 19.9424 38.0149 20.3836 39.0112C20.8245 38.0149 21.6271 37.2123 22.6262 36.772C21.6271 36.33 20.8245 35.5274 20.3836 34.5295C19.9424 35.5274 19.1379 36.33 18.1408 36.772ZM20.3836 41.15C20.177 41.15 20.0118 40.9831 20.0118 40.7776C20.0118 38.7738 18.3781 37.1438 16.3727 37.1438C16.1677 37.1438 16 36.9778 16 36.772C16 36.5654 16.1677 36.3996 16.3727 36.3996C18.3781 36.3996 20.0118 34.7674 20.0118 32.7611C20.0118 32.5553 20.177 32.3887 20.3836 32.3887C20.5883 32.3887 20.7552 32.5553 20.7552 32.7611C20.7552 34.7674 22.3871 36.3996 24.3926 36.3996C24.5992 36.3996 24.7661 36.5654 24.7661 36.772C24.7661 36.9778 24.5992 37.1438 24.3926 37.1438C22.3871 37.1438 20.7552 38.7738 20.7552 40.7776C20.7552 40.9831 20.5883 41.15 20.3836 41.15Z" fill="#306CFE" stroke="#306CFE" stroke-miterlimit="22.9256"/>
<defs>
<filter id="filter0_d_506_23966" x="0" y="0" width="64" height="64" filterUnits="userSpaceOnUse" color-interpolation-filters="sRGB">
<feFlood flood-opacity="0" result="BackgroundImageFix"/>
<feColorMatrix in="SourceAlpha" type="matrix" values="0 0 0 0 0 0 0 0 0 0 0 0 0 0 0 0 0 0 127 0" result="hardAlpha"/>
<feOffset dy="4"/>
<feGaussianBlur stdDeviation="2"/>
<feComposite in2="hardAlpha" operator="out"/>
<feColorMatrix type="matrix" values="0 0 0 0 0 0 0 0 0 0 0 0 0 0 0 0 0 0 0.25 0"/>
<feBlend mode="normal" in2="BackgroundImageFix" result="effect1_dropShadow_506_23966"/>
<feBlend mode="normal" in="SourceGraphic" in2="effect1_dropShadow_506_23966" result="shape"/>
</filter>
</defs>
</svg>
