<svg width="64" height="64" viewBox="0 0 64 64" fill="none" xmlns="http://www.w3.org/2000/svg">
<g filter="url(#filter0_d_506_23883)">
<path d="M32 56C47.464 56 60 43.464 60 28C60 12.536 47.464 0 32 0C16.536 0 4 12.536 4 28C4 43.464 16.536 56 32 56Z" fill="white"/>
</g>
<path d="M24.8539 15.6014H38.2257V11.2003C38.2257 9.86271 37.1452 8.77555 35.8041 8.77555H27.2848C25.9438 8.77555 24.8539 9.86271 24.8539 11.2003V15.6014ZM38.6113 16.3763H24.4677C24.2555 16.3763 24.0818 16.2025 24.0818 15.9893V11.2003C24.0818 9.43539 25.5192 8 27.2848 8H35.8041C37.5694 8 39.0072 9.43539 39.0072 11.2003V15.9893C39.0072 16.2025 38.8334 16.3763 38.6113 16.3763Z" fill="#787878" stroke="#787878" stroke-miterlimit="22.9256"/>
<path d="M24.8539 16.3764V21.6045C24.8539 25.2919 27.8542 28.2915 31.5398 28.2915C35.2251 28.2915 38.2257 25.2919 38.2257 21.6045V16.3764H24.8539ZM31.5398 29.0674C27.4296 29.0674 24.0818 25.7192 24.0818 21.6045V15.9895C24.0818 15.7743 24.2555 15.6016 24.4677 15.6016H38.6113C38.8334 15.6016 39.0072 15.7743 39.0072 15.9895V21.6045C39.0072 25.7192 35.659 29.0674 31.5398 29.0674Z" fill="#787878" stroke="#787878" stroke-miterlimit="22.9256"/>
<path d="M31.5395 14.202C31.3274 14.202 31.1536 14.0282 31.1536 13.814V10.5598C31.1536 10.3456 31.3274 10.1719 31.5395 10.1719C31.7613 10.1719 31.9257 10.3456 31.9257 10.5598V13.814C31.9257 14.0282 31.7613 14.202 31.5395 14.202Z" fill="#306CFE" stroke="#306CFE" stroke-miterlimit="22.9256"/>
<path d="M33.1701 12.5763H29.919C29.6969 12.5763 29.5234 12.4029 29.5234 12.1884C29.5234 11.9735 29.6969 11.8008 29.919 11.8008H33.1701C33.3825 11.8008 33.5559 11.9735 33.5559 12.1884C33.5559 12.4029 33.3825 12.5763 33.1701 12.5763Z" fill="#306CFE" stroke="#306CFE" stroke-miterlimit="22.9256"/>
<path d="M46.0016 45.999H17.3862C17.1738 45.999 17 45.8252 17 45.6111V39.9719C17 35.8457 20.3578 32.4883 24.487 32.4883H30.6613C30.8835 32.4883 31.0572 32.6617 31.0572 32.8759C31.0572 33.0901 30.8835 33.2638 30.6613 33.2638H24.487C20.782 33.2638 17.7721 36.2731 17.7721 39.9719V45.2231H45.6157V39.9719C45.6157 36.2731 42.6058 33.2638 38.9008 33.2638H36.0453C35.8328 33.2638 35.659 33.0901 35.659 32.8759C35.659 32.6617 35.8328 32.4883 36.0453 32.4883H38.9008C43.03 32.4883 46.3878 35.8457 46.3878 39.9719V45.6111C46.3878 45.8252 46.2141 45.999 46.0016 45.999Z" fill="#306CFE" stroke="#306CFE" stroke-miterlimit="22.9256"/>
<path d="M31.5395 41.0465C31.3274 41.0465 31.1536 40.8731 31.1536 40.6589V37.1104C31.1536 37.0043 31.2016 36.9017 31.279 36.8285L35.7748 32.5932C35.9295 32.4478 36.1803 32.4537 36.3251 32.6098C36.4695 32.766 36.4695 33.0119 36.3151 33.1587L31.9257 37.2783V40.6589C31.9257 40.8731 31.7613 41.0465 31.5395 41.0465Z" fill="#306CFE" stroke="#306CFE" stroke-miterlimit="22.9256"/>
<path d="M41.0619 39.089H36.0452C35.8328 39.089 35.659 38.9166 35.659 38.7024C35.659 38.4879 35.8328 38.3145 36.0452 38.3145H41.0619C41.2744 38.3145 41.4478 38.4879 41.4478 38.7024C41.4478 38.9166 41.2744 39.089 41.0619 39.089Z" fill="#306CFE" stroke="#306CFE" stroke-miterlimit="22.9256"/>
<defs>
<filter id="filter0_d_506_23883" x="0" y="0" width="64" height="64" filterUnits="userSpaceOnUse" color-interpolation-filters="sRGB">
<feFlood flood-opacity="0" result="BackgroundImageFix"/>
<feColorMatrix in="SourceAlpha" type="matrix" values="0 0 0 0 0 0 0 0 0 0 0 0 0 0 0 0 0 0 127 0" result="hardAlpha"/>
<feOffset dy="4"/>
<feGaussianBlur stdDeviation="2"/>
<feComposite in2="hardAlpha" operator="out"/>
<feColorMatrix type="matrix" values="0 0 0 0 0 0 0 0 0 0 0 0 0 0 0 0 0 0 0.25 0"/>
<feBlend mode="normal" in2="BackgroundImageFix" result="effect1_dropShadow_506_23883"/>
<feBlend mode="normal" in="SourceGraphic" in2="effect1_dropShadow_506_23883" result="shape"/>
</filter>
</defs>
</svg>
