<svg width="64" height="64" viewBox="0 0 64 64" fill="none" xmlns="http://www.w3.org/2000/svg">
<g filter="url(#filter0_d_506_24000)">
<path d="M32 56C47.464 56 60 43.464 60 28C60 12.536 47.464 0 32 0C16.536 0 4 12.536 4 28C4 43.464 16.536 56 32 56Z" fill="white"/>
</g>
<path d="M50.8606 23.0974C50.8333 23.0974 50.8063 23.0947 50.7804 23.0898C50.57 23.0445 50.4368 22.84 50.4804 22.6297L50.5721 22.2107C50.5721 22.1869 50.5769 22.1405 50.5818 22.1163C50.6492 21.7572 50.678 21.3666 50.6666 20.921C50.6617 20.7068 50.8316 20.529 51.044 20.5234C51.2589 20.5542 51.4356 20.6881 51.4432 20.9016C51.4546 21.4032 51.4211 21.8471 51.344 22.2619C51.3488 22.2505 51.3516 22.32 51.3197 22.4162L51.2398 22.7899C51.201 22.9732 51.0388 23.0974 50.8606 23.0974Z" fill="#787878" stroke="#787878" stroke-miterlimit="22.9256"/>
<path d="M22.1755 49C21.7323 49 21.3763 48.8806 21.1275 48.6181C18.5726 45.9026 17.186 40.1478 14.6673 29.6992C14.3791 28.5018 14.0761 27.2435 13.7547 25.9195C13.4596 24.7021 13.2444 23.5026 13.1132 22.3564C13.1042 22.2637 13.0994 22.227 13.0994 22.1893C13.0534 21.8015 13.0309 21.3791 13.0119 20.967C12.9973 20.9082 12.9973 20.8473 13.007 20.7864C12.8738 16.0584 14.6618 13.6831 16.1861 12.5213C18.1747 11.0084 20.9411 10.5936 23.5908 11.4135L23.6102 11.4194L23.6372 11.427C24.6356 11.7339 25.8188 11.9577 27.1505 12.0957C28.5869 12.2587 30.2465 12.339 32.2313 12.339C33.8332 12.3255 35.4976 12.2473 37.1697 12.1082C37.1718 12.1082 37.2063 12.1065 37.2354 12.1054C38.319 11.5668 39.5645 11.3315 40.9494 11.4097C45.7784 11.6751 51.2937 15.7557 51.4432 20.8193C51.448 21.0335 51.2813 21.212 51.0661 21.2189C50.845 21.2265 50.6734 21.0566 50.6665 20.8425C50.5316 16.1868 45.3992 12.4306 40.9058 12.1836C39.6427 12.1168 38.5034 12.3293 37.5257 12.8261C37.5008 12.8385 37.4745 12.8493 37.4475 12.8569C37.3589 12.879 37.2883 12.879 37.2371 12.879C35.5419 13.0219 33.8601 13.1001 32.2334 13.1146C30.2178 13.1146 28.5291 13.0337 27.0654 12.8666C25.6912 12.7247 24.462 12.4905 23.4161 12.1701L23.395 12.1643L23.368 12.1567C20.9943 11.4211 18.4217 11.7965 16.6563 13.1388C14.6673 14.6528 13.6747 17.3081 13.7837 20.8183L13.7816 20.8667L13.7837 20.883C13.8059 21.3075 13.8252 21.7226 13.8733 22.1451C13.883 22.2378 13.8851 22.2755 13.8851 22.3118C14.0114 23.3839 14.2217 24.5505 14.5103 25.7365C14.8296 27.0602 15.1344 28.3202 15.4219 29.5169C17.9094 39.8364 19.2759 45.521 21.6908 48.0853C22.1852 48.608 24.9166 48.0303 31.9923 42.5266C34.5182 40.5626 37.1842 38.2764 39.7025 35.9142C39.8606 35.7692 40.1069 35.7758 40.2526 35.9328C40.4003 36.0889 40.3906 36.3342 40.2353 36.4809C37.6973 38.858 35.0112 41.1604 32.4676 43.139C28.8436 45.9596 24.4156 49 22.1755 49Z" fill="#787878" stroke="#787878" stroke-miterlimit="22.9256"/>
<path d="M42.2844 48.9991C40.0439 48.9991 35.6163 45.9598 31.9919 43.1387C31.8975 43.0654 31.8414 42.9523 31.8414 42.8329C31.8414 42.7132 31.8975 42.6004 31.9919 42.5267C34.3559 40.6879 36.8628 38.5505 39.2413 36.3464C39.3977 36.2007 39.6444 36.209 39.7872 36.3668C39.935 36.5235 39.9253 36.7688 39.7682 36.9145C37.5052 39.0127 35.1278 41.0501 32.8624 42.8315C39.6492 48.0553 42.2844 48.6009 42.7708 48.085C45.1829 45.5211 46.5533 39.8372 49.0377 29.5187C49.3262 28.3214 49.6282 27.0603 49.9507 25.7356C50.2475 24.5043 50.4534 23.3318 50.5672 22.2521C50.5894 22.0389 50.7852 21.8826 50.9938 21.9068C51.2059 21.9279 51.3584 22.1192 51.3363 22.3323C51.2231 23.446 51.01 24.652 50.7049 25.9186C50.3838 27.2436 50.0808 28.5026 49.7905 29.7004C47.2767 40.1479 45.8873 45.9027 43.3344 48.6171C43.0853 48.88 42.7273 48.9991 42.2844 48.9991Z" fill="#787878" stroke="#787878" stroke-miterlimit="22.9256"/>
<path d="M24.004 17.8968C23.7915 17.8968 23.6168 17.7231 23.6168 17.509C23.6168 17.2948 23.7915 17.1212 24.004 17.1212C33.2357 17.1212 37.003 12.2977 37.0386 12.2496C37.168 12.0777 37.414 12.0458 37.5807 12.1742C37.7527 12.3036 37.7862 12.5468 37.6561 12.7174C37.497 12.9298 33.618 17.8968 24.004 17.8968Z" fill="#306CFE" stroke="#306CFE" stroke-miterlimit="22.9256"/>
<defs>
<filter id="filter0_d_506_24000" x="0" y="0" width="64" height="64" filterUnits="userSpaceOnUse" color-interpolation-filters="sRGB">
<feFlood flood-opacity="0" result="BackgroundImageFix"/>
<feColorMatrix in="SourceAlpha" type="matrix" values="0 0 0 0 0 0 0 0 0 0 0 0 0 0 0 0 0 0 127 0" result="hardAlpha"/>
<feOffset dy="4"/>
<feGaussianBlur stdDeviation="2"/>
<feComposite in2="hardAlpha" operator="out"/>
<feColorMatrix type="matrix" values="0 0 0 0 0 0 0 0 0 0 0 0 0 0 0 0 0 0 0.25 0"/>
<feBlend mode="normal" in2="BackgroundImageFix" result="effect1_dropShadow_506_24000"/>
<feBlend mode="normal" in="SourceGraphic" in2="effect1_dropShadow_506_24000" result="shape"/>
</filter>
</defs>
</svg>
