<svg width="64" height="64" viewBox="0 0 64 64" fill="none" xmlns="http://www.w3.org/2000/svg">
<g filter="url(#filter0_d_506_23928)">
<path d="M32 56C47.464 56 60 43.464 60 28C60 12.536 47.464 0 32 0C16.536 0 4 12.536 4 28C4 43.464 16.536 56 32 56Z" fill="white"/>
</g>
<path d="M38.2275 48.615C38.1178 48.615 37.9892 48.6034 37.8702 48.5805C34.7502 48.007 33.7226 42.2064 33.3923 38.7984C33.2548 37.3592 32.0986 36.2738 30.7134 36.2738C29.3093 36.2738 28.1627 37.3592 28.0249 38.7978C27.6026 42.9635 26.4834 48.0388 23.5381 48.5805C22.9786 48.6865 22.4647 48.5436 22.0061 48.1544C19.6846 46.1553 19.6295 37.4382 19.8131 32.4203C19.8679 30.6014 19.4647 28.8547 18.6293 27.3692C16.8405 24.2205 14.3357 18.2762 17.547 13.8598C20.8041 9.372 26.098 11.1502 28.9697 12.61C30.0712 13.1824 31.3371 13.1814 32.4471 12.6117C35.31 11.1502 40.6134 9.37097 43.8705 13.8598C45.0906 15.5423 45.5954 17.5957 45.3659 19.9604C45.3474 20.1632 45.1641 20.3095 44.962 20.2924C44.7603 20.2729 44.6136 20.0924 44.6317 19.8896C44.843 17.7086 44.3841 15.8251 43.2738 14.2928C40.3381 10.2484 35.4385 11.9155 32.7774 13.2679C31.4653 13.9484 29.9515 13.9484 28.6305 13.2669C25.9786 11.9138 21.0794 10.2474 18.1434 14.2928C15.1704 18.3768 17.5743 24.0112 19.2718 27.0067C20.1708 28.6115 20.6113 30.4916 20.547 32.4449C20.2536 40.7603 20.9601 46.2822 22.492 47.596C22.7673 47.8381 23.0614 47.9198 23.4098 47.8555C25.3275 47.5023 26.7402 44.1754 27.2907 38.726C27.4562 36.9095 28.9331 35.5369 30.7134 35.5369C32.484 35.5369 33.952 36.9095 34.1264 38.729C34.3832 41.3036 35.2549 47.3512 38.0073 47.8555C38.3469 47.9215 38.6406 47.8398 38.9248 47.6014C40.3839 46.3574 41.0996 41.1723 40.8883 33.3754C40.8883 33.1705 41.0442 33.0019 41.2463 32.9965C41.4481 33.0009 41.6225 33.1514 41.6225 33.3549C41.7784 39.1134 41.5216 46.3564 39.4022 48.163C39.0445 48.4639 38.6499 48.615 38.2275 48.615Z" fill="#787878" stroke="#787878" stroke-miterlimit="22.9256"/>
<path d="M40.6226 18.8719C38.8608 18.8719 37.191 19.5165 35.879 20.7062C34.4749 21.9752 33.6586 23.7137 33.5666 25.6013C33.475 27.4885 34.1172 29.2996 35.3924 30.6999C36.6586 32.0988 38.4019 32.9212 40.283 33.0139C42.173 33.1018 43.9806 32.4568 45.3844 31.1868C46.7792 29.9181 47.6047 28.18 47.6967 26.292C47.7883 24.4048 47.1461 22.5938 45.8706 21.1945C44.6047 19.7942 42.861 18.9721 40.971 18.8801C40.8609 18.874 40.742 18.8719 40.6226 18.8719ZM40.6407 33.7597C40.5121 33.7597 40.3839 33.756 40.2461 33.7505C38.1636 33.6479 36.2459 32.7407 34.8422 31.195C33.4381 29.6494 32.7227 27.65 32.8325 25.5654C32.9337 23.4808 33.8419 21.5614 35.3835 20.1594C36.925 18.7574 38.9248 18.0464 41.008 18.1435C43.0997 18.2454 45.0171 19.1527 46.4212 20.6986C47.816 22.2439 48.5314 24.243 48.4305 26.3279C48.3296 28.4125 47.4214 30.3319 45.8798 31.7339C44.4299 33.0477 42.5861 33.7597 40.6407 33.7597Z" fill="#787878" stroke="#306CFE" stroke-miterlimit="22.9256"/>
<mask id="mask0_506_23928" style="mask-type:luminance" maskUnits="userSpaceOnUse" x="32" y="18" width="17" height="16">
<path d="M40.6226 18.868C38.8608 18.868 37.191 19.5126 35.879 20.7023C34.4749 21.9713 33.6586 23.7098 33.5666 25.5974C33.475 27.4846 34.1172 29.2957 35.3924 30.696C36.6586 32.0949 38.4019 32.9173 40.283 33.01C42.173 33.0979 43.9806 32.4529 45.3844 31.1829C46.7792 29.9142 47.6047 28.1761 47.6967 26.2881C47.7883 24.4009 47.1461 22.5899 45.8706 21.1906C44.6047 19.7903 42.861 18.9682 40.971 18.8762C40.8609 18.8701 40.742 18.868 40.6226 18.868ZM40.6407 33.7558C40.5121 33.7558 40.3839 33.7521 40.2461 33.7466C38.1636 33.644 36.2459 32.7368 34.8422 31.1911C33.4381 29.6455 32.7227 27.6461 32.8325 25.5615C32.9337 23.4769 33.8419 21.5575 35.3835 20.1555C36.925 18.7535 38.9248 18.0425 41.008 18.1396C43.0997 18.2415 45.0171 19.1487 46.4212 20.6947C47.816 22.24 48.5314 24.2391 48.4305 26.324C48.3296 28.4086 47.4214 30.328 45.8798 31.73C44.4299 33.0438 42.5861 33.7558 40.6407 33.7558Z" fill="white"/>
</mask>
<g mask="url(#mask0_506_23928)">
<path d="M35.8789 20.7051L41.9145 27.3818L41.9203 27.3767L41.9254 27.3716L35.8789 20.7051ZM35.3923 30.6981L42.0663 24.6592L42.0564 24.6486L42.0465 24.6376L35.3923 30.6981ZM40.2827 33.0122L39.8398 42.0019L39.8518 42.0026L39.8641 42.0033L40.2827 33.0122ZM45.3843 31.1854L51.4226 37.8601L51.4322 37.8515L51.4414 37.843L45.3843 31.1854ZM45.8706 21.1931L39.1949 27.23L39.2069 27.2434L39.2188 27.2563L45.8706 21.1931ZM40.971 18.8787L40.4492 27.8643L40.4919 27.8667L40.5347 27.8691L40.971 18.8787ZM40.2461 33.7491L39.8029 42.7388L39.8433 42.7408L39.8843 42.7426L40.2461 33.7491ZM34.8418 31.1936L28.1787 37.2446L28.1804 37.2463L34.8418 31.1936ZM32.8324 25.5643L41.8208 26.0386L41.8218 26.0195L41.8225 25.9997L32.8324 25.5643ZM35.3831 20.158L41.4395 26.8169V26.8166L35.3831 20.158ZM41.0076 18.1425L41.4453 9.15245L41.4364 9.15175L41.4279 9.15141L41.0076 18.1425ZM46.4211 20.6976L53.1026 14.6668L53.0937 14.6569L53.0845 14.647L46.4211 20.6976ZM48.4305 26.3266L39.4401 25.8913V25.8916L48.4305 26.3266ZM45.8798 31.7325L51.9243 38.4014L51.9301 38.3963L51.9359 38.3908L45.8798 31.7325ZM40.6222 9.87019C36.6199 9.87019 32.7962 11.3495 29.8325 14.038L41.9254 27.3716C41.5859 27.6797 41.1016 27.8708 40.6222 27.8708V9.87019ZM29.8437 14.0277C26.6499 16.9142 24.7841 20.9052 24.5769 25.1629L42.5567 26.0369C42.5331 26.5201 42.3002 27.0334 41.9145 27.3818L29.8437 14.0277ZM24.5769 25.1629C24.3704 29.4134 25.8339 33.5702 28.7385 36.7593L42.0465 24.6376C42.4007 25.0264 42.5796 25.5609 42.5567 26.0369L24.5769 25.1629ZM28.719 36.7374C31.5939 39.9146 35.5811 41.7923 39.8398 42.0019L40.7258 24.0228C41.2227 24.0474 41.7237 24.281 42.0663 24.6592L28.719 36.7374ZM39.8641 42.0033C44.117 42.2013 48.2485 40.7319 51.4226 37.8601L39.346 24.5111C39.7126 24.1794 40.2286 23.9996 40.7016 24.0218L39.8641 42.0033ZM51.4414 37.843C54.5857 34.9822 56.4784 31.0131 56.6864 26.7277L38.7062 25.8536C38.7312 25.3448 38.9719 24.851 39.3269 24.5282L51.4414 37.843ZM56.6864 26.728C56.8932 22.4775 55.43 18.3193 52.5227 15.1299L39.2188 27.2563C38.8622 26.8655 38.6833 26.3296 38.7062 25.8536L56.6864 26.728ZM52.5466 15.1558C49.667 11.9722 45.6746 10.0959 41.4073 9.88866L40.5347 27.8691C40.0477 27.8452 39.542 27.6133 39.1949 27.23L52.5466 15.1558ZM41.4928 9.89347C41.1331 9.87261 40.8175 9.87019 40.6222 9.87019V27.8708C40.6366 27.8708 40.628 27.8712 40.6048 27.8708C40.5815 27.8705 40.5272 27.8691 40.4492 27.8643L41.4928 9.89347ZM40.6407 24.758C40.6619 24.758 40.6725 24.758 40.668 24.758C40.6626 24.758 40.6451 24.7573 40.6082 24.756L39.8843 42.7426C40.0833 42.7504 40.3442 42.759 40.6407 42.759V24.758ZM40.6896 24.7597C40.8216 24.7662 40.9792 24.8011 41.1372 24.876C41.2959 24.9509 41.4193 25.0487 41.5038 25.1417L28.1804 37.2463C31.1825 40.5503 35.3342 42.5182 39.8029 42.7388L40.6896 24.7597ZM41.5055 25.1434C41.5941 25.2412 41.6837 25.38 41.7456 25.5534C41.8078 25.7271 41.8283 25.8971 41.8208 26.0386L23.8448 25.0894C23.6074 29.5827 25.1678 33.9286 28.1787 37.2446L41.5055 25.1434ZM41.8225 25.9997C41.816 26.1334 41.7811 26.291 41.7066 26.4483C41.6324 26.6059 41.5346 26.7301 41.4395 26.8169L29.3274 13.4994C26.0282 16.5004 24.0595 20.6552 23.8427 25.1287L41.8225 25.9997ZM41.4395 26.8166C41.3314 26.9147 41.1888 27.004 41.0237 27.0631C40.8592 27.1219 40.7067 27.139 40.5877 27.1332L41.4279 9.15141C36.9913 8.94419 32.6543 10.4734 29.3274 13.4994L41.4395 26.8166ZM40.5703 27.1326C40.4454 27.1264 40.2892 27.0929 40.1284 27.017C39.9677 26.9411 39.8422 26.8415 39.7574 26.7485L53.0845 14.647C50.0784 11.3362 45.9226 9.36993 41.4453 9.15245L40.5703 27.1326ZM39.7396 26.7284C39.6521 26.6312 39.568 26.4986 39.5105 26.3378C39.4531 26.1764 39.4339 26.0205 39.4401 25.8913L57.4205 26.7619C57.6366 22.2993 56.0896 17.976 53.1026 14.6668L39.7396 26.7284ZM39.4401 25.8916C39.4466 25.7579 39.4818 25.6002 39.5567 25.4422C39.6305 25.2853 39.7283 25.1608 39.8238 25.074L51.9359 38.3908C55.2354 35.3901 57.2044 31.2347 57.4205 26.7615L39.4401 25.8916ZM39.835 25.0634C39.9226 24.9844 40.046 24.903 40.2009 24.8431C40.3558 24.7833 40.509 24.758 40.6407 24.758V42.759C44.829 42.759 48.8254 41.2099 51.9243 38.4014L39.835 25.0634Z" fill="#787878"/>
</g>
<path d="M40.6226 18.8719C38.8608 18.8719 37.191 19.5165 35.879 20.7062C34.4749 21.9752 33.6586 23.7137 33.5666 25.6013C33.475 27.4885 34.1172 29.2996 35.3924 30.6999C36.6586 32.0988 38.4019 32.9212 40.283 33.0139C42.173 33.1018 43.9806 32.4568 45.3844 31.1868C46.7792 29.9181 47.6047 28.18 47.6967 26.292C47.7883 24.4048 47.1461 22.5938 45.8706 21.1945C44.6047 19.7942 42.861 18.9721 40.971 18.8801C40.8609 18.874 40.742 18.8719 40.6226 18.8719ZM40.6407 33.7597C40.5121 33.7597 40.3839 33.756 40.2461 33.7505C38.1636 33.6479 36.2459 32.7407 34.8422 31.195C33.4381 29.6494 32.7227 27.65 32.8325 25.5654C32.9337 23.4808 33.8419 21.5614 35.3835 20.1594C36.925 18.7574 38.9248 18.0464 41.008 18.1435C43.0997 18.2454 45.0171 19.1527 46.4212 20.6986C47.816 22.2439 48.5314 24.243 48.4305 26.3279C48.3296 28.4125 47.4214 30.3319 45.8798 31.7339C44.4299 33.0477 42.5861 33.7597 40.6407 33.7597Z" stroke="#306CFE" stroke-miterlimit="22.9256"/>
<path d="M43.017 33.3673H43.0081C42.806 33.3646 42.6501 33.1967 42.6501 32.9939C42.7417 27.1153 45.687 21.0404 45.8156 20.7853C45.9072 20.6017 46.1274 20.5258 46.3018 20.6164C46.4943 20.7063 46.5679 20.9276 46.4759 21.1102C46.4485 21.1707 43.4759 27.2951 43.3839 33.0048C43.3839 33.2059 43.2187 33.3673 43.017 33.3673Z" fill="#787878" stroke="#787878" stroke-miterlimit="22.9256"/>
<mask id="mask1_506_23928" style="mask-type:luminance" maskUnits="userSpaceOnUse" x="42" y="20" width="5" height="14">
<path d="M43.017 33.3673H43.0081C42.806 33.3646 42.6501 33.1967 42.6501 32.9939C42.7417 27.1153 45.687 21.0404 45.8156 20.7853C45.9072 20.6017 46.1274 20.5258 46.3018 20.6164C46.4943 20.7063 46.5679 20.9276 46.4759 21.1102C46.4485 21.1707 43.4759 27.2951 43.3839 33.0048C43.3839 33.2059 43.2187 33.3673 43.017 33.3673Z" fill="white"/>
</mask>
<g mask="url(#mask1_506_23928)">
<path d="M43.0081 33.367L42.8857 42.367L42.9469 42.3677H43.0081V33.367ZM42.6497 32.9933L33.6504 32.8531L33.6494 32.9235V32.9933H42.6497ZM45.8156 20.7851L53.855 24.8328L53.8605 24.8215L53.8659 24.8106L45.8156 20.7851ZM46.3018 20.6161L42.1443 28.5988L42.3174 28.6894L42.4945 28.7718L46.3018 20.6161ZM46.4759 21.1103L38.4337 17.0687L38.3551 17.225L38.2826 17.384L46.4759 21.1103ZM43.3839 33.0042L34.3843 32.8599L34.3833 32.9321V33.0042H43.3839ZM43.017 24.3664H43.0081V42.3677H43.017V24.3664ZM43.1302 24.3674C48.172 24.4358 51.6508 28.6001 51.6508 32.9933H33.6494C33.6494 37.792 37.44 42.2928 42.8857 42.367L43.1302 24.3674ZM51.6494 33.1338C51.675 31.502 52.1302 29.5046 52.7553 27.6335C53.3588 25.8289 53.948 24.6478 53.855 24.8328L37.7762 16.7377C37.5683 17.1508 33.7763 24.7921 33.6504 32.8531L51.6494 33.1338ZM53.8659 24.8106C51.8651 28.8115 46.7348 30.9894 42.1443 28.5988L50.459 12.6335C45.5201 10.0613 39.9493 12.3914 37.7652 16.7599L53.8659 24.8106ZM42.4945 28.7718C38.0798 26.7112 36.2531 21.4081 38.4337 17.0687L54.5187 25.1512C56.8823 20.4465 54.9093 14.7013 50.1092 12.4605L42.4945 28.7718ZM38.2826 17.384C38.3958 17.1353 34.5112 24.9641 34.3843 32.8599L52.3836 33.1492C52.4082 31.6309 52.8551 29.68 53.4847 27.8095C54.0742 26.0584 54.634 24.9142 54.6692 24.8359L38.2826 17.384ZM34.3833 33.0042C34.3833 28.1006 38.3825 24.3664 43.017 24.3664V42.3677C48.0547 42.3677 52.3849 38.31 52.3849 33.0042H34.3833Z" fill="#787878"/>
</g>
<path d="M43.017 33.3673H43.0081C42.806 33.3646 42.6501 33.1967 42.6501 32.9939C42.7417 27.1153 45.687 21.0404 45.8156 20.7853C45.9072 20.6017 46.1274 20.5258 46.3018 20.6164C46.4943 20.7063 46.5679 20.9276 46.4759 21.1102C46.4485 21.1707 43.4759 27.2951 43.3839 33.0048C43.3839 33.2059 43.2187 33.3673 43.017 33.3673Z" stroke="#787878" stroke-miterlimit="22.9256"/>
<line x1="47.2091" y1="29.1056" x2="54.4472" y2="32.7246" stroke="#306CFE" stroke-width="2"/>
<defs>
<filter id="filter0_d_506_23928" x="0" y="0" width="64" height="64" filterUnits="userSpaceOnUse" color-interpolation-filters="sRGB">
<feFlood flood-opacity="0" result="BackgroundImageFix"/>
<feColorMatrix in="SourceAlpha" type="matrix" values="0 0 0 0 0 0 0 0 0 0 0 0 0 0 0 0 0 0 127 0" result="hardAlpha"/>
<feOffset dy="4"/>
<feGaussianBlur stdDeviation="2"/>
<feComposite in2="hardAlpha" operator="out"/>
<feColorMatrix type="matrix" values="0 0 0 0 0 0 0 0 0 0 0 0 0 0 0 0 0 0 0.25 0"/>
<feBlend mode="normal" in2="BackgroundImageFix" result="effect1_dropShadow_506_23928"/>
<feBlend mode="normal" in="SourceGraphic" in2="effect1_dropShadow_506_23928" result="shape"/>
</filter>
</defs>
</svg>
