<svg width="64" height="64" viewBox="0 0 64 64" fill="none" xmlns="http://www.w3.org/2000/svg">
<g filter="url(#filter0_d_506_23986)">
<path d="M32 56C47.464 56 60 43.464 60 28C60 12.536 47.464 0 32 0C16.536 0 4 12.536 4 28C4 43.464 16.536 56 32 56Z" fill="white"/>
</g>
<path d="M32.0001 34.0282C33.8096 34.0282 35.3088 35.4245 35.4894 37.2753C35.7475 39.9037 36.6459 46.0727 39.4427 46.5932C39.7945 46.6596 40.0931 46.5743 40.3793 46.3273C41.9308 44.9939 42.6532 39.36 42.3668 30.8693C42.2985 28.8735 42.7496 26.958 43.6664 25.3291C45.3958 22.272 47.8406 16.5193 44.8164 12.3564C41.8174 8.22969 36.8246 9.93668 34.1139 11.3194C32.7703 12.0062 31.2282 12.0062 29.8862 11.3194C27.1755 9.9356 22.1844 8.22969 19.1837 12.3564C16.1595 16.5193 18.6043 22.2711 20.3308 25.3291C21.2505 26.9572 21.7017 28.8735 21.6334 30.8693C21.3469 39.36 22.0702 44.9947 23.619 46.3273C23.907 46.5743 24.2056 46.6604 24.5574 46.5932C27.3542 46.0727 28.2524 39.9037 28.5108 37.2753C28.6914 35.4245 30.1913 34.0282 32.0001 34.0282ZM24.3338 47.3669C23.8949 47.3669 23.4915 47.2098 23.1276 46.8972C20.8866 44.9704 20.6715 37.1039 20.8829 30.8442C20.9455 28.9857 20.5281 27.207 19.6769 25.6995C17.8606 22.4836 15.3021 16.4172 18.5763 11.9136C21.9028 7.33528 27.3045 9.15619 30.2288 10.6496C31.3527 11.2249 32.6447 11.2249 33.7713 10.6496C36.6953 9.15619 42.0973 7.33636 45.4238 11.9136C48.6977 16.4183 46.1395 22.4844 44.3235 25.6995C43.4717 27.207 43.0546 28.9857 43.1181 30.8442C43.3287 37.1039 43.1108 44.9696 40.8725 46.8972C40.4103 47.294 39.8815 47.439 39.3051 47.3332C36.1257 46.7409 35.0814 40.8235 34.7408 37.3482C34.5977 35.8839 33.4195 34.7806 32.0001 34.7806C30.5806 34.7806 29.4024 35.8839 29.2575 37.3482C28.9187 40.8235 27.8744 46.7409 24.6932 47.3332C24.5714 47.3556 24.4518 47.3669 24.3338 47.3669Z" fill="#787878" stroke="#787878" stroke-miterlimit="22.9256"/>
<path d="M41.447 21.6209C41.3973 21.6209 41.3487 21.6117 41.302 21.5909C41.1093 21.5104 41.0194 21.2907 41.0998 21.0987C41.9186 19.148 42.6411 16.4726 41.4359 14.8129C40.9662 14.1652 40.5151 13.936 39.7179 13.936C39.5092 13.936 39.3418 13.7684 39.3418 13.5599C39.3418 13.3521 39.5092 13.1836 39.7179 13.1836C40.7575 13.1836 41.433 13.5281 42.0431 14.3701C43.458 16.3136 42.6889 19.2603 41.7942 21.3897C41.7334 21.5339 41.5949 21.6209 41.447 21.6209Z" fill="#306CFE" stroke="#306CFE" stroke-miterlimit="22.9256"/>
<path d="M23.8635 42.4389C30.1991 29.7678 23.8635 22.0246 30.1991 12.873Z" fill="#306CFE"/>
<path d="M23.8635 42.4389C30.1991 29.7678 23.8635 22.0246 30.1991 12.873" stroke="#306CFE" stroke-width="2" stroke-miterlimit="22.9256"/>
<defs>
<filter id="filter0_d_506_23986" x="0" y="0" width="64" height="64" filterUnits="userSpaceOnUse" color-interpolation-filters="sRGB">
<feFlood flood-opacity="0" result="BackgroundImageFix"/>
<feColorMatrix in="SourceAlpha" type="matrix" values="0 0 0 0 0 0 0 0 0 0 0 0 0 0 0 0 0 0 127 0" result="hardAlpha"/>
<feOffset dy="4"/>
<feGaussianBlur stdDeviation="2"/>
<feComposite in2="hardAlpha" operator="out"/>
<feColorMatrix type="matrix" values="0 0 0 0 0 0 0 0 0 0 0 0 0 0 0 0 0 0 0.25 0"/>
<feBlend mode="normal" in2="BackgroundImageFix" result="effect1_dropShadow_506_23986"/>
<feBlend mode="normal" in="SourceGraphic" in2="effect1_dropShadow_506_23986" result="shape"/>
</filter>
</defs>
</svg>
