<svg width="64" height="64" viewBox="0 0 64 64" fill="none" xmlns="http://www.w3.org/2000/svg">
<g filter="url(#filter0_d_506_23959)">
<path d="M32 56C47.464 56 60 43.464 60 28C60 12.536 47.464 0 32 0C16.536 0 4 12.536 4 28C4 43.464 16.536 56 32 56Z" fill="white"/>
</g>
<path d="M32.8055 47.0447C32.6794 47.0447 32.5533 47.0328 32.4271 47.0097C29.1829 46.4167 28.1286 40.5315 27.7845 37.0767C27.6472 35.6778 26.5008 34.6233 25.1134 34.6233C23.7379 34.6233 22.5916 35.6778 22.4539 37.0767C22.0299 41.2974 20.8948 46.4463 17.811 47.0097C17.215 47.1219 16.6418 46.9603 16.1601 46.5476C13.9018 44.5986 13.6842 36.8248 13.8905 30.6453C13.9592 28.8295 13.5465 27.0917 12.6983 25.6181C10.8641 22.426 8.28482 16.3996 11.5978 11.9118C14.9682 7.34234 20.425 9.1528 23.3826 10.6379C24.4831 11.1954 25.7556 11.1954 26.8561 10.6379C29.8135 9.1525 35.2587 7.34323 38.6407 11.9118C41.9536 16.3996 39.3628 22.426 37.5402 25.6184C36.9096 26.7077 36.5312 27.9257 36.3938 29.2402C36.3592 29.4936 36.13 29.6799 35.8778 29.6505C35.6258 29.6239 35.4423 29.3974 35.4766 29.1443C35.6258 27.7019 36.0498 26.3616 36.7375 25.1601C38.4571 22.1619 40.8875 16.5254 37.8955 12.4589C34.9262 8.43365 29.9624 10.107 27.2688 11.4612C25.9045 12.1496 24.3339 12.1496 22.9584 11.4612C20.2757 10.1061 15.3119 8.43276 12.343 12.4589C9.3394 16.5254 11.781 22.1622 13.5006 25.1595C14.4293 26.7823 14.8879 28.6898 14.819 30.677C14.5324 39.0047 15.2432 44.5346 16.768 45.8498C17.0315 46.0836 17.3181 46.1648 17.6505 46.1032C20.3906 45.6007 21.2847 39.5595 21.537 36.9858C21.7202 35.1135 23.2678 33.7016 25.1134 33.7016C26.9707 33.7016 28.5185 35.1135 28.7017 36.9858C28.954 39.5595 29.8478 45.6002 32.5876 46.1032C32.9085 46.1606 33.1723 46.0925 33.4246 45.8882C34.0321 45.4033 35.1098 43.6695 35.4079 37.5105C35.4192 37.2565 35.6027 37.0548 35.8893 37.072C36.1416 37.0838 36.3364 37.2997 36.3248 37.5543C36.0841 42.5987 35.3161 45.5608 33.9978 46.61C33.6309 46.899 33.2298 47.0447 32.8055 47.0447Z" fill="#787878" stroke="#787878" stroke-miterlimit="22.9256"/>
<path d="M33.6078 35.1193C33.4589 35.1193 33.3097 35.0441 33.2295 34.907C33.0921 34.6923 33.1492 34.4075 33.3671 34.2704L44.0971 27.4011C44.3035 27.2641 44.5904 27.3253 44.7278 27.5403C44.877 27.7549 44.8083 28.0395 44.5904 28.1765L33.8601 35.0464C33.7799 35.0959 33.6996 35.1193 33.6078 35.1193Z" fill="#306CFE" stroke="#306CFE" stroke-miterlimit="22.9256"/>
<path d="M43.8336 26.1771L45.6337 28.9045L48.4078 27.1293L46.608 24.4013L43.8336 26.1771ZM45.496 29.9981C45.3471 29.9981 45.1979 29.925 45.1176 29.7912L42.8021 26.2947C42.7331 26.1913 42.7103 26.0661 42.7447 25.9447C42.7675 25.8242 42.8365 25.7191 42.9395 25.6528L46.4934 23.3802C46.6998 23.2431 46.9864 23.3032 47.1238 23.514L49.4396 27.0114C49.5083 27.1151 49.5314 27.2409 49.4967 27.3617C49.4739 27.4822 49.4053 27.5873 49.3019 27.653L45.7483 29.925C45.668 29.9747 45.5878 29.9981 45.496 29.9981Z" fill="#306CFE" stroke="#306CFE" stroke-miterlimit="22.9256"/>
<path d="M49.9554 29.0934C49.8064 29.0934 49.6575 29.0203 49.5657 28.8865L45.4502 22.6534C45.3815 22.5504 45.3584 22.4245 45.393 22.3041C45.4158 22.183 45.4845 22.0779 45.5878 22.0119L52.1794 17.7965C52.3858 17.6579 52.6724 17.7201 52.81 17.9356C52.9474 18.1497 52.8903 18.4348 52.6724 18.5722L46.4819 22.5359L50.0815 27.9995L56.295 24.0295C56.5014 23.8916 56.788 23.9543 56.9256 24.1687C57.0633 24.3827 57.0056 24.6679 56.7879 24.8049L50.1964 29.0203C50.1274 29.07 50.0356 29.0934 49.9554 29.0934Z" fill="#306CFE" stroke="#306CFE" stroke-miterlimit="22.9256"/>
<defs>
<filter id="filter0_d_506_23959" x="0" y="0" width="64" height="64" filterUnits="userSpaceOnUse" color-interpolation-filters="sRGB">
<feFlood flood-opacity="0" result="BackgroundImageFix"/>
<feColorMatrix in="SourceAlpha" type="matrix" values="0 0 0 0 0 0 0 0 0 0 0 0 0 0 0 0 0 0 127 0" result="hardAlpha"/>
<feOffset dy="4"/>
<feGaussianBlur stdDeviation="2"/>
<feComposite in2="hardAlpha" operator="out"/>
<feColorMatrix type="matrix" values="0 0 0 0 0 0 0 0 0 0 0 0 0 0 0 0 0 0 0.25 0"/>
<feBlend mode="normal" in2="BackgroundImageFix" result="effect1_dropShadow_506_23959"/>
<feBlend mode="normal" in="SourceGraphic" in2="effect1_dropShadow_506_23959" result="shape"/>
</filter>
</defs>
</svg>
