<svg width="64" height="64" viewBox="0 0 64 64" fill="none" xmlns="http://www.w3.org/2000/svg">
<g filter="url(#filter0_d_506_23754)">
<path d="M32 56C47.464 56 60 43.464 60 28C60 12.536 47.464 0 32 0C16.536 0 4 12.536 4 28C4 43.464 16.536 56 32 56Z" fill="white"/>
</g>
<path fill-rule="evenodd" clip-rule="evenodd" d="M49.6262 45.3398H50.1863C50.7794 44.9902 50.5905 45.3414 51.2397 44.4143L51.838 43.5304C51.8954 43.4229 51.9332 43.2827 52 43.1817V42.6787C51.6326 41.9065 51.9316 42.1822 51.0622 41.5837C50.9037 41.4745 50.7968 41.399 50.6438 41.3031C50.0859 40.9529 49.5365 40.5654 48.9835 40.2064L38.9669 33.5903C38.4025 33.2119 37.8521 32.8739 37.3027 32.4975L34.8265 30.8572C33.6453 30.0733 33.6743 30.5179 33.2417 30.4259C33.0487 30.3849 31.1856 28.9063 30.2565 28.5515C28.6313 27.9313 26.9358 27.193 25.2987 26.5528C25.0963 26.4737 24.5655 26.2167 24.4093 26.0334C24.5132 25.8532 24.634 25.7086 24.7515 25.5417L26.8189 22.6268C27.0204 22.346 26.9513 22.3088 26.9503 21.9763C28.5545 21.4885 29.4481 20.2146 29.1472 18.5075C28.8044 16.5637 28.2633 17.6052 27.8636 17.8699C26.767 18.5959 25.9534 16.8465 25.6241 16.1434C24.8554 14.5024 23.6455 13.1368 21.8243 12.739C20.0865 12.3597 18.8962 13.1826 18.0362 14.5469C17.8997 14.7635 17.5284 15.3256 17.8293 15.5435C18.2457 15.8454 18.4058 15.2087 18.5453 14.9708C19.2982 13.6888 20.3739 12.8488 22.3732 13.5901C23.5609 14.0304 24.5781 15.3754 25.1205 16.6054C25.5308 17.5351 26.2885 18.6944 27.3451 18.6986C27.9043 18.7009 28.0832 18.4565 28.4273 18.2947C28.7453 19.4124 28.4718 20.164 27.8581 20.7457C27.5895 21.0004 27.2121 21.1854 26.8054 21.3378C26.518 21.4456 26.4599 21.5127 26.2223 21.35L19.8079 17.1015C19.4673 16.8723 18.0504 15.8699 17.7524 15.8441C17.2259 15.7986 17.0128 16.2635 16.8011 16.5627C16.5696 16.8901 14.8556 19.3523 14.7459 19.4334C14.507 19.3268 13.9501 18.799 13.2018 19.1341C12.7501 19.3365 12.4463 19.9086 12.6694 20.5336C12.8431 21.0207 13.3076 21.29 13.7122 21.5521C14.1441 21.832 14.5222 22.1226 14.9315 22.3908L17.3679 24.0709C18.1879 24.6494 18.9824 25.1766 19.8031 25.7522C20.6244 26.3288 21.4334 26.8631 22.236 27.4345C23.4269 28.2823 23.4866 28.3578 24.8987 28.8885C25.875 29.2556 26.8593 29.6908 27.8417 30.0633C29.2566 30.5999 29.3745 30.5989 30.5893 31.4318C31.0203 31.7272 31.3877 31.9729 31.8103 32.2679C32.1415 32.4988 31.6957 32.829 32.627 33.5105C33.4377 34.1042 34.2218 34.6069 35.0467 35.2083C35.4551 35.506 35.8363 35.7675 36.2554 36.0568L47.1475 43.6892C47.3538 43.83 47.5427 43.9726 47.7473 44.1176L48.9596 44.9638C49.2111 45.1494 49.3683 45.192 49.6262 45.3398Z" fill="#787878" stroke="#306CFE" stroke-width="0.666709" stroke-miterlimit="22.9256"/>
<path fill-rule="evenodd" clip-rule="evenodd" d="M15.3147 19.8178L17.4367 21.2844C17.7963 21.5266 18.1343 21.759 18.4843 22.0066L23.8433 25.6595C24.0635 25.4212 24.2688 25.0904 24.47 24.8082C24.6895 24.5009 24.879 24.2364 25.084 23.9404L26.2978 22.2055C26.2362 22.1309 25.7687 21.8245 25.6548 21.7774L24.5022 23.4803C24.3934 23.6463 24.2198 24.0017 23.8856 23.7689C23.3917 23.4248 24.8599 22.0789 25.0937 21.3629C24.96 21.3096 24.8322 21.2138 24.7079 21.1389C24.5636 21.2686 23.78 22.4902 23.5573 22.8231C23.4466 22.9887 23.299 23.316 22.9778 23.1581C22.552 22.9489 23.0895 22.3369 23.3626 21.9307C23.4866 21.7467 23.6157 21.543 23.74 21.3612C23.8569 21.1905 24.0509 20.9319 24.1281 20.7647L23.7365 20.4883L22.5969 22.1922C22.4887 22.3565 22.3331 22.6684 22.017 22.5161C21.5912 22.3111 22.1397 21.6915 22.4025 21.2993L23.1773 20.1532C23.0837 20.0347 22.9129 19.9273 22.7621 19.8604C22.5213 20.1972 22.254 20.6339 22.0151 20.9939C21.6997 21.4691 21.4272 22.0831 21.0482 21.8746C20.6479 21.6541 21.1848 21.0439 21.4395 20.6668L22.2033 19.4885L21.8276 19.2264L20.6689 20.9235C20.5572 21.0924 20.4239 21.4116 20.0855 21.2337C19.7963 21.0817 19.9819 20.786 20.1004 20.6033C20.4229 20.1071 21.013 19.2968 21.2481 18.8709L20.841 18.5888L19.7081 20.292C19.5958 20.4635 19.4547 20.7847 19.1219 20.5871C18.8452 20.4225 19.027 20.1306 19.1529 19.9444L20.2947 18.2059L19.8973 17.9534C19.7676 18.0978 19.6216 18.3466 19.5199 18.499L18.7639 19.636C18.657 19.7994 18.5182 20.119 18.1866 19.9634C17.7608 19.7636 18.2974 19.155 18.5705 18.7447C18.8168 18.3747 19.1119 17.9802 19.3307 17.5951C19.3236 17.587 19.3114 17.5651 19.3075 17.5725C19.3036 17.5799 19.2894 17.5554 19.284 17.5509C19.2788 17.5467 19.2665 17.5357 19.2601 17.5302C19.2536 17.5253 19.2429 17.5169 19.2358 17.5114C19.2029 17.4866 19.1681 17.4653 19.1361 17.4443C19.0715 17.4017 19.0027 17.3572 18.9446 17.3246L17.8024 19.0049C17.6846 19.1831 17.5313 19.4872 17.2197 19.3216C16.8097 19.1037 17.3379 18.5381 17.611 18.1129C17.7647 17.8737 18.307 17.1144 18.3768 16.9207C18.1543 16.8232 17.8958 16.5704 17.6688 16.502L16.4869 18.1417C16.288 18.4293 16.1179 18.6698 15.9061 18.9604C15.706 19.2348 15.4751 19.5273 15.3147 19.8178Z" fill="white" stroke="#787878" stroke-width="0.666709" stroke-miterlimit="22.9256"/>
<path fill-rule="evenodd" clip-rule="evenodd" d="M42.9438 39.9412L44.3152 37.9309C44.1244 37.753 43.8468 37.6084 43.6246 37.457L38.6168 34.1486C37.6609 33.5242 36.7079 32.8805 35.7639 32.2668C35.2823 31.9533 34.83 31.6424 34.3515 31.3344C34.0981 31.1714 33.8628 30.9328 33.4586 31.0784C33.2093 31.1685 32.4898 32.0207 32.6095 32.5024C32.6822 32.793 32.9621 32.9525 33.1929 33.1097L35.9757 35.0603C38.2908 36.6396 40.6484 38.3942 42.9438 39.9412Z" fill="white" stroke="#787878" stroke-width="0.666709" stroke-miterlimit="22.9256"/>
<path fill-rule="evenodd" clip-rule="evenodd" d="M32.1237 31.6687L32.6538 30.8496L30.3662 29.3081C29.8277 29.0505 28.2997 28.4648 27.6447 28.203C26.9245 27.9147 24.8554 27.1354 24.2969 26.7735C24.1055 26.6496 23.9241 26.5279 23.7313 26.3936C23.3468 26.1253 22.9827 25.8757 22.5869 25.6029C21.1183 24.5899 19.4696 23.5087 18.0378 22.4943L14.6158 20.1532C14.3762 19.9979 13.6189 19.3584 13.3089 19.8617C13.0029 20.3588 13.7363 20.7788 14.0095 20.9654L23.1002 27.2297C23.5496 27.5493 23.7516 27.713 24.3131 27.9499C25.2157 28.3312 26.1458 28.6835 27.0491 29.0428C27.7548 29.3233 29.184 29.8573 29.7816 30.1385C30.3817 30.4206 30.9754 30.9294 31.5229 31.28C31.6872 31.3852 31.9471 31.5932 32.1237 31.6687Z" fill="white" stroke="#787878" stroke-width="0.666709" stroke-miterlimit="22.9256"/>
<path fill-rule="evenodd" clip-rule="evenodd" d="M44.4437 40.9776L49.2362 44.3577C49.5013 44.5365 49.7954 44.8325 50.2115 44.6227C50.4317 44.512 51.3188 43.1783 51.3456 42.9914C51.4144 42.5111 51.0563 42.3613 50.7916 42.1857L46.6506 39.4532C46.4666 39.3299 45.9675 38.9586 45.7709 38.9082C45.7173 39.0877 45.2576 39.7395 45.1243 39.9468C44.907 40.2844 44.6071 40.6644 44.4437 40.9776Z" fill="white" stroke="#787878" stroke-width="0.666709" stroke-miterlimit="22.9256"/>
<path fill-rule="evenodd" clip-rule="evenodd" d="M24.1739 5H23.8811C23.6515 5.27021 23.6815 5.18599 23.697 5.74094C23.719 6.53189 23.3155 7.20077 22.7641 7.66565C21.4611 8.76297 20.0687 8.12602 20.2682 8.94085C20.3492 9.27208 20.919 9.15006 21.6913 9.41672C22.6084 9.73309 23.3416 10.3035 23.6137 11.2791C23.8197 12.0168 23.4927 12.8071 24.1167 12.647C24.4021 12.5737 24.356 12.2725 24.366 11.9565C24.375 11.6733 24.4447 11.406 24.5293 11.16C24.9235 10.014 26.1089 9.37311 27.275 9.17812C27.5556 9.13099 27.8778 9.17268 27.9201 8.86405C27.9672 8.51797 27.6802 8.48857 27.3877 8.45597C27.1275 8.42691 26.8285 8.36883 26.5926 8.30168C25.6318 8.02856 24.9019 7.50944 24.5413 6.56934C24.2701 5.86233 24.4128 5.74677 24.3501 5.30997C24.324 5.12725 24.2814 5.12042 24.1739 5Z" fill="#787878" stroke="white" stroke-width="0.666709" stroke-miterlimit="22.9256"/>
<path fill-rule="evenodd" clip-rule="evenodd" d="M11 12.1933V12.4897C11.3583 12.8031 11.4965 12.6459 12.1884 12.8655C12.9457 13.1057 13.5627 13.6219 13.7612 14.4202C13.8613 14.8228 13.6521 15.6816 14.2303 15.5205C14.8062 15.36 13.8858 13.6435 16.2348 12.8254C16.8833 12.5994 17.345 12.7392 17.3841 12.3648C17.4144 12.0729 17.2356 12.0145 16.975 11.9832C15.9413 11.8585 14.9915 11.485 14.609 10.4491C14.3475 9.74109 14.6086 9.27558 14.281 9.16227C13.6427 8.94145 13.8513 9.877 13.777 10.2044C13.5297 11.2923 12.6009 11.7859 11.573 11.9557C11.1769 12.0213 11.2379 11.9509 11 12.1933Z" fill="#787878" stroke="white" stroke-width="0.666709" stroke-miterlimit="22.9256"/>
<path fill-rule="evenodd" clip-rule="evenodd" d="M11 26.2406V26.5263C11.3906 26.8643 11.34 26.6519 12.0495 26.8785C12.4227 26.9976 12.7262 27.171 12.956 27.3708C13.8619 28.1589 13.1598 29.4269 13.913 29.2439C14.3817 29.1299 13.9013 28.0255 14.8359 27.3175C15.9142 26.5011 16.7032 26.8972 16.7494 26.3971C16.8068 25.7763 15.7547 26.2361 14.8443 25.4819C13.85 24.6584 14.3836 23.684 13.9507 23.5265C13.3606 23.3115 13.5113 24.2306 13.4732 24.4366C13.4009 24.8252 13.1707 25.1852 12.9706 25.3692C12.6022 25.7082 12.0515 25.9277 11.5143 26.0078C11.1556 26.0614 11.2069 26.0311 11 26.2406Z" fill="#787878" stroke="white" stroke-width="0.666709" stroke-miterlimit="22.9256"/>
<path fill-rule="evenodd" clip-rule="evenodd" d="M29.9988 13.6533C29.6275 13.8147 29.889 14.0603 29.7402 14.5188C29.3147 15.8275 27.4897 15.2177 27.9669 16.0242C28.1418 16.3199 29.7608 16.1743 29.7957 17.517C29.8002 17.701 29.7773 17.9056 29.8935 18.0112C29.9959 18.1041 30.2044 18.1116 30.3187 18.0218C30.5753 17.821 30.2661 17.0743 31.0515 16.5304C31.7576 16.0413 32.668 16.274 32.3574 15.6719C32.1937 15.3543 31.4318 15.6371 30.8116 14.9917C30.1808 14.3354 30.689 13.353 29.9988 13.6533Z" fill="#306CFE" stroke="white" stroke-width="0.666709" stroke-miterlimit="22.9256"/>
<path fill-rule="evenodd" clip-rule="evenodd" d="M22.0358 8.8289C22.5229 9.14819 23.4579 9.30635 24.0383 10.5651C24.1552 10.4673 24.1413 10.4263 24.2327 10.2868C24.4674 9.92945 24.5942 9.81903 24.8951 9.55011C25.1731 9.30185 25.4152 9.16784 25.7432 8.99997C25.8149 8.96349 25.8404 8.95738 25.9117 8.92348L26.079 8.81497C25.4439 8.63547 24.8076 8.16802 24.4205 7.67376C24.3056 7.52687 24.1707 7.2573 24.0493 7.11719C23.9127 7.28668 23.8065 7.51625 23.6961 7.65346C23.4382 7.97371 23.0398 8.32624 22.6711 8.52253C22.5339 8.59549 22.1475 8.74432 22.0358 8.8289Z" fill="white" stroke="#306CFE" stroke-width="0.666709" stroke-miterlimit="22.9256"/>
<path fill-rule="evenodd" clip-rule="evenodd" d="M12.6746 12.3141C12.7498 12.3916 12.6177 12.2993 12.7795 12.3971C13.0849 12.5814 12.988 12.4433 13.5217 12.8516C13.7896 13.0563 13.9297 13.3204 14.1696 13.6171L14.4576 13.2326C15.1233 12.5046 15.2156 12.6483 15.6495 12.3351C14.8205 11.9703 14.6032 11.7017 14.1593 11.0645C13.8739 11.4076 14.0502 11.3301 13.5504 11.7892C13.3115 12.0087 13.0174 12.1985 12.6746 12.3141Z" fill="white" stroke="#306CFE" stroke-width="0.666709" stroke-miterlimit="22.9256"/>
<path fill-rule="evenodd" clip-rule="evenodd" d="M12.6165 26.3739C12.8047 26.5314 13.5556 26.8313 13.818 27.4518L13.9633 27.3091C14.2571 26.935 14.6138 26.5779 15.0745 26.4017C14.9079 26.2612 14.4414 26.1175 14.087 25.6662C14.0082 25.5658 13.9427 25.4302 13.8403 25.3398C13.7483 25.4377 13.6863 25.5558 13.6127 25.6436C13.5355 25.7356 13.387 25.8844 13.3286 25.9351C13.1459 26.0936 12.8847 26.2331 12.6165 26.3739Z" fill="white" stroke="#306CFE" stroke-width="0.666709" stroke-miterlimit="22.9256"/>
<path fill-rule="evenodd" clip-rule="evenodd" d="M20.8691 13.9464C19.8211 14.1185 19.2856 15.0783 19.8618 15.2026C20.2902 15.2949 20.2092 14.7412 20.9297 14.6028C21.271 14.5369 21.5912 14.6286 21.8569 14.7651C22.1391 14.9094 22.5585 14.9669 22.4936 14.5117C22.4364 14.1104 21.3494 13.8677 20.8691 13.9464Z" fill="#306CFE" stroke="#306CFE" stroke-width="0.666709" stroke-miterlimit="22.9256"/>
<path fill-rule="evenodd" clip-rule="evenodd" d="M50.1863 45.3417H52V43.1836C51.9331 43.2846 51.8954 43.4247 51.8379 43.5325L51.2397 44.4165C50.5905 45.3433 50.7793 44.9921 50.1863 45.3417Z" fill="white" stroke="white" stroke-width="0.666709" stroke-miterlimit="22.9256"/>
<path fill-rule="evenodd" clip-rule="evenodd" d="M43.5037 40.3202L43.9359 40.6159C44.0867 40.2411 45.1514 38.8439 45.2918 38.5433C45.1314 38.4855 45.0077 38.3454 44.8386 38.2715L43.5037 40.3202Z" fill="white" stroke="#787878" stroke-width="0.666709" stroke-miterlimit="22.9256"/>
<path fill-rule="evenodd" clip-rule="evenodd" d="M29.4067 15.8308C29.7489 16.134 29.7073 15.981 30.1415 16.4862C30.2542 16.3709 30.3591 16.2618 30.4702 16.1533C30.609 16.0177 30.7226 15.9574 30.8685 15.8573C30.4773 15.5606 30.5105 15.6859 30.1502 15.2148C29.9656 15.3404 29.9307 15.5661 29.4067 15.8308Z" fill="white" stroke="#787878" stroke-width="0.666709" stroke-miterlimit="22.9256"/>
<path fill-rule="evenodd" clip-rule="evenodd" d="M23.3019 15.565C22.963 15.7636 23.1993 16.3373 23.6102 16.1342C23.9683 15.9573 23.6784 15.3439 23.3019 15.565Z" fill="#306CFE" stroke="white" stroke-width="0.666709" stroke-miterlimit="22.9256"/>
<defs>
<filter id="filter0_d_506_23754" x="0" y="0" width="64" height="64" filterUnits="userSpaceOnUse" color-interpolation-filters="sRGB">
<feFlood flood-opacity="0" result="BackgroundImageFix"/>
<feColorMatrix in="SourceAlpha" type="matrix" values="0 0 0 0 0 0 0 0 0 0 0 0 0 0 0 0 0 0 127 0" result="hardAlpha"/>
<feOffset dy="4"/>
<feGaussianBlur stdDeviation="2"/>
<feComposite in2="hardAlpha" operator="out"/>
<feColorMatrix type="matrix" values="0 0 0 0 0 0 0 0 0 0 0 0 0 0 0 0 0 0 0.25 0"/>
<feBlend mode="normal" in2="BackgroundImageFix" result="effect1_dropShadow_506_23754"/>
<feBlend mode="normal" in="SourceGraphic" in2="effect1_dropShadow_506_23754" result="shape"/>
</filter>
</defs>
</svg>
