<svg width="64" height="64" viewBox="0 0 64 64" fill="none" xmlns="http://www.w3.org/2000/svg">
<g filter="url(#filter0_d_506_23774)">
<path d="M32 56C47.464 56 60 43.464 60 28C60 12.536 47.464 0 32 0C16.536 0 4 12.536 4 28C4 43.464 16.536 56 32 56Z" fill="white"/>
</g>
<path fill-rule="evenodd" clip-rule="evenodd" d="M24.9141 13.028C20.3354 13.2861 17.2303 15.1873 14.3849 18.3166L13.5194 19.2647C13.4036 19.4045 13.3193 19.4553 13.1992 19.591L11.0232 22.278C10.8145 22.5992 10.9656 22.8373 11.0903 23.2233C13.1136 29.4846 14.9084 35.0243 18.6117 40.3717C20.042 42.4372 21.216 44.2137 23.2294 45.5359C28.9735 49.3094 37.9715 48.9246 42.9352 43.4942C43.3042 43.0902 43.7027 42.6387 44.0688 42.1627C47.9408 37.1274 50.686 29.9086 52.6766 23.7091C53.002 22.6955 53.0232 22.8207 52.6025 21.8591C51.9708 20.4154 50.4413 17.6511 49.3473 16.5432C49.087 16.2793 48.9663 16.2057 48.7342 15.9275C48.5182 15.669 47.785 15.0903 47.4041 14.8705C46.8534 14.5523 46.4235 14.3051 45.7746 14.0486C40.341 11.9011 35.008 14.4916 33.2195 14.3746C31.8428 14.2847 29.3462 12.778 24.9141 13.028Z" fill="#787878" stroke="#787878" stroke-miterlimit="22.9256"/>
<path fill-rule="evenodd" clip-rule="evenodd" d="M11.4812 22.5143C11.4958 22.9997 12.4056 25.514 12.6159 26.1344C13.0227 27.3325 13.4403 28.5031 13.861 29.6975C15.4653 34.2501 17.648 38.3553 20.4921 42.1094C21.8212 43.8641 23.284 45.2532 25.8192 46.3262C30.9284 48.4876 36.9245 47.5188 40.7634 44.7132C45.7214 41.0897 49.6208 31.2572 51.7741 24.7667C51.9067 24.3667 52.3121 23.2816 52.3641 22.9431C52.4448 22.4173 51.1699 20.1163 50.8967 19.6513C49.7554 17.7103 48.3175 15.8372 46.2181 14.8446C43.751 13.6781 41.0283 13.541 38.1147 13.9908C36.7363 14.2039 35.5997 14.56 34.2983 14.8419C32.8855 15.1479 31.6153 14.5183 30.3516 14.1798C27.6424 13.4542 24.7579 13.2992 21.9869 14.018C20.0073 14.5316 18.1331 15.56 16.6231 16.8724C14.8469 18.4155 14.3068 19.1737 12.8434 20.8416C12.7161 20.9865 12.6834 21.0651 12.5593 21.2141L11.4812 22.5143Z" fill="white" stroke="#787878" stroke-miterlimit="22.9256"/>
<path fill-rule="evenodd" clip-rule="evenodd" d="M13.4225 22.7286C13.4632 23.4023 15.214 27.4763 15.5774 28.1554C16.5351 29.9451 17.4949 31.3494 18.5816 32.7741C19.3353 33.7619 19.7083 34.0896 20.3095 34.8138L24.1716 38.553C28.0032 42.0411 33.0261 43.6894 37.6454 40.3403C38.3806 39.8071 39.0424 39.2463 39.6416 38.575C39.935 38.2467 40.3027 37.978 40.5831 37.6351C40.7528 37.4282 40.8173 37.3159 41.0147 37.1232C41.7287 36.4265 44.0464 33.2398 44.7885 32.2666C45.6582 31.1265 47.0228 28.9658 47.8161 27.7449L50.823 23.1132C51.1001 22.5251 50.2955 22.502 49.8308 22.3572C45.7968 21.1 42.9246 20.2211 38.5724 20.9789C34.1935 21.7415 33.6594 22.638 28.9302 21.4247C25.6363 20.5793 22.2287 20.0848 18.8104 20.5854C16.9809 20.8538 14.5598 21.7116 13.4225 22.7286Z" fill="#787878" stroke="#787878" stroke-miterlimit="22.9256"/>
<path fill-rule="evenodd" clip-rule="evenodd" d="M46.0174 23.9783C45.5786 24.0105 45.1516 24.1556 44.6906 24.0315C44.2901 23.9236 44.2024 23.7225 43.8866 23.4186C43.8747 23.407 43.8552 23.3873 43.8383 23.373C43.6442 24.6393 42.9643 25.3819 41.5832 25.1753C40.474 25.0091 39.6982 25.5702 38.8853 25.002C38.5744 24.7849 38.6022 24.6496 38.3671 24.4532C38.2096 24.769 38.0876 25.5247 37.5333 25.927C36.9364 26.3605 36.4033 26.1903 35.6486 26.1326C34.9346 26.078 34.2338 26.3972 33.5724 26.196C32.9427 26.0047 32.7126 25.5613 32.402 24.9816C32.0654 25.5454 31.8911 25.9698 31.268 26.175C30.6572 26.3765 29.9012 26.038 29.1759 26.1499C27.695 26.3785 26.7518 26.1536 26.4218 24.271C26.097 24.5881 25.8804 25.0369 25.2034 25.0742C24.5374 25.1109 24.2219 24.8822 23.4302 25.021C21.4313 25.3717 21.5097 24.14 21.0646 23.449C20.0628 24.6529 19.9008 24.1465 18.7757 24.1146C18.314 24.1014 18.1758 24.1041 18.03 24.4742C17.2974 26.3317 17.2673 28.1866 17.6936 30.1696C17.8702 30.9912 18.0118 31.096 18.403 31.637L19.5707 33.155C19.7067 33.3158 19.7235 33.307 19.8399 33.4616L20.8056 34.6011C21.0414 34.826 21.1506 34.9183 21.3563 35.1343C22.2508 36.074 22.8071 36.635 23.822 37.5173L24.7153 38.289C26.0527 39.4322 27.9738 40.8973 30.2365 41.4292C33.9861 42.3104 37.0134 40.5092 39.3562 38.1357C40.0408 37.4427 40.7273 36.6482 41.403 35.8365C42.0429 35.0678 42.6977 34.2252 43.3046 33.3853L45.9996 29.5488C46.443 28.8955 46.445 28.8636 46.4896 27.87C46.5409 26.7306 46.5082 24.8707 46.0174 23.9783Z" fill="white" stroke="#787878" stroke-miterlimit="22.9256"/>
<path fill-rule="evenodd" clip-rule="evenodd" d="M32.0693 22.5413C30.089 22.4215 27.6332 21.5467 26.8987 21.543C26.8464 22.2075 26.8471 23.9086 27.0128 24.4921C27.2988 25.4985 27.7734 25.8317 28.9603 25.6383C30.1152 25.4504 32.4781 26.7313 32.0693 22.5413Z" fill="white" stroke="#787878" stroke-miterlimit="22.9256"/>
<path fill-rule="evenodd" clip-rule="evenodd" d="M32.7211 22.5429C32.5878 23.3478 32.7215 24.6134 33.1259 25.1915C33.7893 26.1396 34.5807 25.4995 35.6526 25.5877C36.3801 25.6474 37.1851 26.0802 37.7116 24.7149C38.0009 23.9649 37.8944 22.5497 37.8839 21.6738C36.137 21.9672 34.6171 22.5812 32.7211 22.5429Z" fill="white" stroke="#787878" stroke-miterlimit="22.9256"/>
<path fill-rule="evenodd" clip-rule="evenodd" d="M43.3403 21.3151C41.9324 21.192 40.7931 21.1906 39.4008 21.3948C38.2582 21.5624 38.4332 21.364 38.4599 22.6042C38.4735 23.2361 38.6213 23.8935 38.9418 24.285C39.3387 24.7708 39.7299 24.7497 40.4806 24.6245C41.1982 24.5048 41.9437 24.7775 42.3911 24.6713C43.3148 24.4525 43.6022 22.4118 43.3403 21.3151Z" fill="white" stroke="#787878" stroke-miterlimit="22.9256"/>
<path fill-rule="evenodd" clip-rule="evenodd" d="M26.2687 21.4269C25.562 21.0836 22.4523 20.9085 21.52 20.9414C21.4281 21.6619 21.4866 23.0015 21.7085 23.627C22.1332 24.8224 22.8736 24.5476 23.5734 24.4448C24.6644 24.2844 25.3199 24.9581 25.8943 24.0331C26.3157 23.3539 26.3709 22.3353 26.2687 21.4269Z" fill="white" stroke="#787878" stroke-miterlimit="22.9256"/>
<path fill-rule="evenodd" clip-rule="evenodd" d="M16.3863 21.7938C16.3655 22.4987 16.6512 23.192 17.0193 23.522C17.4777 23.9335 18.4063 23.521 19.0317 23.5882C19.9302 23.6848 20.2232 23.8406 20.6184 23.0977C20.9607 22.4542 20.9521 21.7443 20.9409 20.9512C19.6676 20.9949 17.3454 21.2164 16.3863 21.7938Z" fill="white" stroke="#787878" stroke-miterlimit="22.9256"/>
<path fill-rule="evenodd" clip-rule="evenodd" d="M14.4391 24.0219C14.7635 25.2862 16.3542 28.7235 17.0236 29.543C16.8844 28.0491 16.7488 27.3649 17.0666 25.8371C17.1833 25.275 17.4191 24.7482 17.5253 24.2886C16.3827 23.8127 16.8744 24.3133 16.1869 23.275L16.0457 23.0996C15.7831 23.7811 15.3257 24.0151 14.4391 24.0219Z" fill="white" stroke="#787878" stroke-miterlimit="22.9256"/>
<path fill-rule="evenodd" clip-rule="evenodd" d="M46.6388 23.9999C46.7383 24.6111 46.903 25.1243 46.9754 25.8102C47.0528 26.5426 46.9956 27.2234 47.0403 27.9341C47.206 27.7628 49.5021 24.1787 49.5712 23.9934C48.4742 23.3642 49.1886 23.7451 48.5261 23.125C48.1663 23.9293 47.7123 24.1305 46.6388 23.9999Z" fill="white" stroke="#787878" stroke-miterlimit="22.9256"/>
<path fill-rule="evenodd" clip-rule="evenodd" d="M48.1984 22.4767C47.7877 22.2101 44.6284 21.4604 43.9508 21.418C44.0011 22.7728 44.2921 23.728 45.6526 23.4723C47.118 23.1968 47.6088 24.1928 48.1984 22.4767Z" fill="white" stroke="#787878" stroke-miterlimit="22.9256"/>
<path fill-rule="evenodd" clip-rule="evenodd" d="M23.2336 15.5909C25.0698 15.518 26.4108 15.3497 28.1133 15.9579C29.8832 16.5902 30.3635 16.8952 32.5141 16.9505C32.357 16.7968 32.2998 16.8104 31.9995 16.7334C31.8031 16.6832 31.6155 16.6347 31.427 16.5872C31.0388 16.4888 30.7014 16.3935 30.3215 16.2575C28.3134 15.54 27.3629 14.5794 24.4265 15.1907C24.0849 15.2615 23.5065 15.3602 23.2336 15.5909Z" fill="#306CFE" stroke="#306CFE" stroke-miterlimit="22.9256"/>
<path fill-rule="evenodd" clip-rule="evenodd" d="M14.0393 22.9673L14.2182 23.4476C14.8211 23.5005 15.1022 23.5484 15.4008 23.1712C15.6313 22.8798 15.7593 22.4741 15.8053 22.0195C15.2464 22.1695 14.4411 22.6474 14.0393 22.9673Z" fill="white" stroke="#787878" stroke-miterlimit="22.9256"/>
<path fill-rule="evenodd" clip-rule="evenodd" d="M33.1283 41.5963C32.3829 37.6349 32.1844 32.945 32.2066 27.9141C32.1636 32.4789 32.0105 37.043 31.271 41.6081" fill="#306CFE"/>
<path d="M33.1283 41.5963C32.3829 37.6349 32.1844 32.945 32.2066 27.9141C32.1636 32.4789 32.0105 37.043 31.271 41.6081" stroke="#306CFE" stroke-width="2" stroke-miterlimit="22.9256"/>
<defs>
<filter id="filter0_d_506_23774" x="0" y="0" width="64" height="64" filterUnits="userSpaceOnUse" color-interpolation-filters="sRGB">
<feFlood flood-opacity="0" result="BackgroundImageFix"/>
<feColorMatrix in="SourceAlpha" type="matrix" values="0 0 0 0 0 0 0 0 0 0 0 0 0 0 0 0 0 0 127 0" result="hardAlpha"/>
<feOffset dy="4"/>
<feGaussianBlur stdDeviation="2"/>
<feComposite in2="hardAlpha" operator="out"/>
<feColorMatrix type="matrix" values="0 0 0 0 0 0 0 0 0 0 0 0 0 0 0 0 0 0 0.25 0"/>
<feBlend mode="normal" in2="BackgroundImageFix" result="effect1_dropShadow_506_23774"/>
<feBlend mode="normal" in="SourceGraphic" in2="effect1_dropShadow_506_23774" result="shape"/>
</filter>
</defs>
</svg>
