<svg width="64" height="64" viewBox="0 0 64 64" fill="none" xmlns="http://www.w3.org/2000/svg">
<g filter="url(#filter0_d_506_23992)">
<path d="M32 56C47.464 56 60 43.464 60 28C60 12.536 47.464 0 32 0C16.536 0 4 12.536 4 28C4 43.464 16.536 56 32 56Z" fill="white"/>
</g>
<path d="M20.4121 29.62H43.6999C43.9318 28.8753 44.2282 28.1824 44.608 27.5104C46.4615 24.2161 49.0748 18.0195 45.8315 13.5565C42.5973 9.10113 37.2315 10.9422 34.3124 12.4362C32.8854 13.1673 31.2451 13.1681 29.8087 12.437C26.8896 10.9414 21.5241 9.10113 18.2805 13.5565C15.0279 18.0322 17.6597 24.2209 19.5131 27.5117C19.8932 28.1834 20.1896 28.8907 20.4121 29.62ZM43.9872 30.3648H20.1339C19.9673 30.3648 19.8188 30.2533 19.7726 30.0922C19.5594 29.3234 19.2536 28.5774 18.8644 27.8751C16.9276 24.4315 14.1847 17.9308 17.6784 13.1188C21.2462 8.2135 27.0194 10.1701 30.1423 11.7734C31.3655 12.395 32.765 12.395 33.9698 11.7734C37.1018 10.1696 42.8752 8.21375 46.4336 13.1188C49.9273 17.9179 47.2029 24.4252 45.2567 27.8769C44.8675 28.5779 44.5618 29.3019 44.3395 30.0922C44.3023 30.2533 44.1541 30.3648 43.9872 30.3648Z" fill="#787878" stroke="#787878" stroke-miterlimit="22.9256"/>
<path d="M24.406 30.3639L28.8634 45.4712C29.1785 46.521 30.1516 47.2541 31.2544 47.2541H32.8669C33.9603 47.2541 34.9426 46.521 35.2577 45.4712L39.7151 30.3639H24.406ZM32.8669 47.9994H31.2544C29.8271 47.9994 28.5483 47.0462 28.15 45.6821L23.5535 30.0971C23.5163 29.9843 23.535 29.8622 23.6091 29.7684C23.6832 29.6743 23.7945 29.6191 23.9055 29.6191H40.2062C40.3266 29.6191 40.4379 29.6743 40.512 29.7684C40.5769 29.8622 40.6045 29.9843 40.5676 30.0971L35.9711 45.6821C35.5634 47.0462 34.2939 47.9994 32.8669 47.9994Z" fill="#306CFE" stroke="#306CFE" stroke-miterlimit="22.9256"/>
<path d="M38.8905 43.5731H25.2309C25.018 43.5731 24.8511 43.4065 24.8511 43.2006C24.8511 42.995 25.018 42.8281 25.2309 42.8281H38.8905C39.0943 42.8281 39.2612 42.995 39.2612 43.2006C39.2612 43.4065 39.0943 43.5731 38.8905 43.5731Z" fill="#306CFE" stroke="#306CFE" stroke-miterlimit="22.9256"/>
<path d="M40.864 39.182H23.2475C23.0437 39.182 22.8771 39.0156 22.8771 38.8095C22.8771 38.6036 23.0437 38.4375 23.2475 38.4375H40.864C41.0772 38.4375 41.235 38.6036 41.235 38.8095C41.235 39.0156 41.0772 39.182 40.864 39.182Z" fill="#306CFE" stroke="#306CFE" stroke-miterlimit="22.9256"/>
<path d="M42.3007 34.3314H21.8114C21.6076 34.3314 21.4409 34.1645 21.4409 33.9589C21.4409 33.7528 21.6076 33.5859 21.8114 33.5859H42.3007C42.5139 33.5859 42.6808 33.7528 42.6808 33.9589C42.6808 34.1645 42.5139 34.3314 42.3007 34.3314Z" fill="#306CFE" stroke="#306CFE" stroke-miterlimit="22.9256"/>
<defs>
<filter id="filter0_d_506_23992" x="0" y="0" width="64" height="64" filterUnits="userSpaceOnUse" color-interpolation-filters="sRGB">
<feFlood flood-opacity="0" result="BackgroundImageFix"/>
<feColorMatrix in="SourceAlpha" type="matrix" values="0 0 0 0 0 0 0 0 0 0 0 0 0 0 0 0 0 0 127 0" result="hardAlpha"/>
<feOffset dy="4"/>
<feGaussianBlur stdDeviation="2"/>
<feComposite in2="hardAlpha" operator="out"/>
<feColorMatrix type="matrix" values="0 0 0 0 0 0 0 0 0 0 0 0 0 0 0 0 0 0 0.25 0"/>
<feBlend mode="normal" in2="BackgroundImageFix" result="effect1_dropShadow_506_23992"/>
<feBlend mode="normal" in="SourceGraphic" in2="effect1_dropShadow_506_23992" result="shape"/>
</filter>
</defs>
</svg>
