<svg width="64" height="64" viewBox="0 0 64 64" fill="none" xmlns="http://www.w3.org/2000/svg">
<g filter="url(#filter0_d_506_23851)">
<path d="M32 56C47.464 56 60 43.464 60 28C60 12.536 47.464 0 32 0C16.536 0 4 12.536 4 28C4 43.464 16.536 56 32 56Z" fill="white"/>
</g>
<path d="M25.5499 49.1892C24.4521 49.1892 23.6184 48.1949 23.0598 46.2249C23.0012 46.0157 23.1188 45.7976 23.3342 45.7387C23.5401 45.6818 23.7558 45.8018 23.8147 46.0109C24.3049 47.7335 24.9616 48.5258 25.7656 48.3804C28.4125 47.8918 29.2655 42.0592 29.5105 39.5746C29.6868 37.8 31.1281 36.4616 32.8731 36.4616C34.6181 36.4616 36.0693 37.8 36.2357 39.5746C36.4807 42.0592 37.3437 47.8918 39.9806 48.3804C40.3139 48.4388 40.5886 48.3619 40.8531 48.1318C42.3237 46.8694 43.0003 41.5374 42.7354 33.5038C42.6666 31.6029 43.0981 29.7792 43.9805 28.2287C44.3039 27.6539 44.6079 27.0756 44.8629 26.5101C44.961 26.3114 45.1962 26.2255 45.3922 26.3192C45.5884 26.4107 45.6764 26.6456 45.5786 26.8425C45.3138 27.4271 45.0002 28.0247 44.6669 28.6177C43.853 30.0417 43.461 31.7217 43.5197 33.4769C43.7255 39.4166 43.5101 46.8838 41.3728 48.7293C40.9219 49.1171 40.4022 49.2592 39.8436 49.1548C36.7847 48.5905 35.7848 42.9581 35.4514 39.6515C35.324 38.2823 34.2163 37.2497 32.8731 37.2497C31.5398 37.2497 30.4321 38.2823 30.2948 39.6515C29.9714 42.9581 28.9714 48.5905 25.9125 49.1548C25.785 49.1778 25.6678 49.1892 25.5499 49.1892Z" fill="#787878" stroke="#787878" stroke-miterlimit="22.9256"/>
<path d="M22.1284 30.3695C21.9621 30.3695 21.805 30.2665 21.746 30.1017C21.5698 29.5837 21.3541 29.085 21.0893 28.6194C19.3443 25.5617 16.9033 19.7908 20.0405 15.5013C23.2265 11.1379 28.4026 12.87 31.1967 14.291C32.2652 14.8326 33.4907 14.8326 34.5496 14.291C35.0789 14.0214 35.6181 13.7832 36.1376 13.5822C36.3437 13.5035 36.569 13.6034 36.6474 13.8069C36.7258 14.0097 36.628 14.2377 36.4221 14.3161C35.9221 14.5079 35.4221 14.7356 34.9123 14.9944C33.6182 15.65 32.138 15.65 30.8439 14.9944C28.2656 13.6851 23.5207 12.0744 20.6775 15.9663C17.7955 19.8988 20.1288 25.3379 21.7757 28.2301C22.0599 28.7397 22.305 29.2845 22.4914 29.8495C22.5698 30.0553 22.4522 30.2788 22.2463 30.3485C22.2071 30.3626 22.1679 30.3695 22.1284 30.3695Z" fill="#787878" stroke="#787878" stroke-miterlimit="22.9256"/>
<path d="M43.1376 11.2666C40.9809 11.2666 39.2359 13.0054 39.2359 15.1438C39.2359 16.6695 40.1476 18.0582 41.5593 18.6823C41.6574 18.7275 41.7358 18.8155 41.775 18.9223C41.8043 19.03 41.7944 19.147 41.7358 19.2436C41.471 19.6963 41.3337 20.1772 41.3337 20.6745C41.3337 22.2376 42.608 23.5098 44.1864 23.5098C45.4808 23.5098 46.6079 22.634 46.9412 21.3794C46.9708 21.2747 47.0393 21.1855 47.1276 21.1332C47.2258 21.0808 47.3335 21.07 47.4412 21.1042C47.765 21.2086 48.0591 21.2591 48.3334 21.2591C49.9217 21.2591 51.2158 19.9767 51.2158 18.399C51.2158 16.8215 49.9217 15.5376 48.3334 15.5376C48.0884 15.5376 47.8335 15.5786 47.5295 15.6663C47.4119 15.7007 47.2748 15.6752 47.1767 15.5968C47.0786 15.5175 47.0196 15.3958 47.0295 15.2692L47.0393 15.1678C47.0393 13.0054 45.2944 11.2666 43.1376 11.2666ZM44.1864 24.2976C42.1768 24.2976 40.5396 22.6723 40.5396 20.6745C40.5396 20.1712 40.6476 19.6817 40.863 19.2164C39.3828 18.3981 38.4514 16.8416 38.4514 15.1438C38.4514 12.5712 40.5494 10.4785 43.1376 10.4785C45.6082 10.4785 47.6375 12.3839 47.8137 14.7926C47.9903 14.7635 48.1668 14.7498 48.3334 14.7498C50.3531 14.7498 52 16.3865 52 18.399C52 20.4106 50.3531 22.0473 48.3334 22.0473C48.0884 22.0473 47.8433 22.0182 47.5785 21.9587C47.0492 23.3542 45.7061 24.2976 44.1864 24.2976Z" fill="#306CFE" stroke="#306CFE" stroke-miterlimit="22.9256"/>
<path d="M15.3934 21.3137C15.2857 21.3137 15.1777 21.2679 15.0993 21.1781C13.9327 19.8443 13.6682 17.9509 14.433 16.3552C14.6975 15.7977 15.0798 15.3067 15.57 14.8911C15.1974 13.787 15.2564 12.6174 15.7561 11.5668C16.815 9.33562 19.501 8.37604 21.7463 9.42508C22.109 9.59593 22.4423 9.81375 22.7558 10.0738C22.9225 10.2147 22.9423 10.463 22.795 10.6294C22.658 10.7955 22.4031 10.8146 22.2463 10.6737C21.9914 10.46 21.7071 10.2799 21.413 10.1393C19.5599 9.27189 17.3443 10.063 16.4718 11.9038C16.0209 12.84 16.0014 13.8938 16.4033 14.8713C16.4721 15.0374 16.4227 15.2298 16.2758 15.3378C15.7758 15.7118 15.3934 16.1678 15.1388 16.6921C14.5212 18.005 14.7366 19.5624 15.6878 20.6608C15.8347 20.8245 15.815 21.0731 15.6582 21.2165C15.5798 21.2817 15.4817 21.3137 15.3934 21.3137Z" fill="#306CFE" stroke="#306CFE" stroke-miterlimit="22.9256"/>
<path d="M22.3346 33.9737C20.668 33.9737 19.3152 35.3174 19.3152 36.9691C19.3152 38.0905 19.9523 39.1082 20.9621 39.627C21.1386 39.7153 21.2266 39.9184 21.168 40.1036C21.0698 40.3649 21.0306 40.6027 21.0306 40.8313C21.0306 42.1093 22.0796 43.1496 23.3639 43.1496C24.6481 43.1496 25.6971 42.1093 25.6971 40.8313C25.6971 40.1737 25.4228 39.5644 24.9228 39.1156C24.7756 38.9858 24.7462 38.7688 24.8539 38.6058C25.1777 38.1145 25.3444 37.549 25.3444 36.9691C25.3444 35.3174 23.9913 33.9737 22.3346 33.9737ZM23.3639 43.9377C21.6383 43.9377 20.2464 42.5443 20.2464 40.8313C20.2464 40.615 20.2757 40.3957 20.3248 40.1683C19.2072 39.478 18.5211 38.2802 18.5211 36.9691C18.5211 34.883 20.2365 33.1855 22.3346 33.1855C24.4327 33.1855 26.1385 34.883 26.1385 36.9691C26.1385 37.5951 25.9814 38.2084 25.6777 38.7596C26.1971 39.329 26.4912 40.0677 26.4912 40.8313C26.4912 42.5443 25.0894 43.9377 23.3639 43.9377Z" fill="#306CFE" stroke="#306CFE" stroke-miterlimit="22.9256"/>
<defs>
<filter id="filter0_d_506_23851" x="0" y="0" width="64" height="64" filterUnits="userSpaceOnUse" color-interpolation-filters="sRGB">
<feFlood flood-opacity="0" result="BackgroundImageFix"/>
<feColorMatrix in="SourceAlpha" type="matrix" values="0 0 0 0 0 0 0 0 0 0 0 0 0 0 0 0 0 0 127 0" result="hardAlpha"/>
<feOffset dy="4"/>
<feGaussianBlur stdDeviation="2"/>
<feComposite in2="hardAlpha" operator="out"/>
<feColorMatrix type="matrix" values="0 0 0 0 0 0 0 0 0 0 0 0 0 0 0 0 0 0 0.25 0"/>
<feBlend mode="normal" in2="BackgroundImageFix" result="effect1_dropShadow_506_23851"/>
<feBlend mode="normal" in="SourceGraphic" in2="effect1_dropShadow_506_23851" result="shape"/>
</filter>
</defs>
</svg>
