<svg width="64" height="64" viewBox="0 0 64 64" fill="none" xmlns="http://www.w3.org/2000/svg">
<g filter="url(#filter0_d_506_23923)">
<path d="M32 56C47.464 56 60 43.464 60 28C60 12.536 47.464 0 32 0C16.536 0 4 12.536 4 28C4 43.464 16.536 56 32 56Z" fill="white"/>
</g>
<path d="M38.2396 26.4187L41.321 23.833L39.0394 21.1139C38.9017 20.9499 38.9232 20.7051 39.0859 20.5688L41.8052 18.287L39.2225 15.2091L36.5032 17.4909C36.3408 17.6273 36.096 17.6061 35.9583 17.442L33.6763 14.7224L30.5949 17.3081L32.8767 20.0277C33.0144 20.1918 32.9932 20.4362 32.8305 20.5726L30.1112 22.8546L32.6936 25.9325L35.4132 23.6505C35.5756 23.5141 35.8204 23.5356 35.9581 23.6996L38.2396 26.4187ZM42.1151 24.179L38.4425 27.2607C38.2798 27.3973 38.0353 27.3761 37.8976 27.2118L35.6161 24.4927L32.8965 26.7745C32.7341 26.9109 32.4894 26.8896 32.3517 26.7256L29.2705 23.0537C29.1328 22.8897 29.1545 22.645 29.317 22.5083L32.0363 20.2266L29.7545 17.5072C29.6168 17.3432 29.6388 17.0993 29.8015 16.9629L33.4742 13.881C33.6366 13.7446 33.8808 13.7653 34.0185 13.9293L36.3003 16.6489L39.0196 14.3669C39.1821 14.2305 39.4268 14.252 39.5645 14.416L42.6456 18.0879C42.7833 18.252 42.7619 18.4967 42.5992 18.6331L39.8798 20.9148L42.1616 23.6339C42.2993 23.7982 42.2778 24.0427 42.1151 24.179Z" fill="#306CFE" stroke="#306CFE" stroke-miterlimit="22.9256"/>
<path d="M32.092 34.0665C32.1816 34.0665 32.2732 34.0983 32.3457 34.161C34.5547 36.0815 36.0857 38.6023 36.7724 41.4488L38.2456 47.5589C38.3496 47.9913 38.6962 48.1822 38.9865 48.2178C39.2739 48.2477 39.6568 48.1485 39.8595 47.7539L42.789 42.0914C43.5685 40.5826 43.9814 38.8878 43.9814 37.1881C43.9814 36.4422 43.9023 35.6948 43.747 34.9663L43.4759 33.6862C42.8692 30.8365 43.2146 27.8143 44.4464 25.174L45.7091 22.4683C46.8099 20.1066 46.5967 17.2917 45.1526 15.1242C43.4392 12.5581 40.3823 11.3052 37.3677 11.9369L32.1721 13.0204C32.1181 13.031 32.0649 13.031 32.0119 13.0204L26.8133 11.9369C23.8044 11.3109 20.7418 12.5581 19.0315 15.1242C17.5843 17.2917 17.3722 20.1066 18.4728 22.4691L19.7376 25.1732C20.9694 27.8143 21.3127 30.8365 20.7078 33.6873L20.434 34.9655C20.2798 35.6948 20.1996 36.4422 20.1996 37.1881C20.1996 38.8878 20.6133 40.5826 21.392 42.0914L24.3216 47.7539C24.525 48.1485 24.9099 48.2488 25.1975 48.2178C25.4859 48.1822 25.8312 47.9913 25.9355 47.5589L27.4114 41.4499C28.0983 38.6023 29.6272 36.0815 31.8372 34.161C31.9106 34.0983 32.0002 34.0665 32.092 34.0665ZM39.0954 48.9992C39.0278 48.9992 38.9623 48.9954 38.8917 48.9878C38.2051 48.9039 37.6562 48.4147 37.4913 47.7403L36.0181 41.6302C35.3959 39.0516 34.0416 36.7567 32.092 34.9731C30.1424 36.7567 28.7871 39.0516 28.1629 41.6313L26.69 47.7403C26.5278 48.4147 25.9789 48.9039 25.289 48.9878C24.6024 49.0706 23.9511 48.7262 23.6328 48.1097L20.7051 42.4472C19.8688 40.8295 19.4258 39.0122 19.4258 37.1881C19.4258 36.3882 19.5108 35.5856 19.6749 34.8044L19.9479 33.5252C20.5188 30.8395 20.1947 27.9898 19.0333 25.5011L17.7707 22.7972C16.5541 20.1897 16.7915 17.0853 18.3861 14.694C20.2719 11.8636 23.6425 10.4822 26.9733 11.1778L32.092 12.2447L37.2086 11.1778C40.5415 10.4822 43.9091 11.8636 45.796 14.694C47.3925 17.0853 47.6269 20.1898 46.4123 22.7961L45.1477 25.5021C43.9863 27.9898 43.662 30.8395 44.2351 33.5252L44.5061 34.8052C44.6732 35.5856 44.7579 36.3882 44.7579 37.1881C44.7579 39.0122 44.3152 40.8295 43.4789 42.4472L40.5491 48.1097C40.2636 48.6654 39.7071 48.9992 39.0954 48.9992Z" fill="#787878" stroke="#787878" stroke-miterlimit="22.9256"/>
<defs>
<filter id="filter0_d_506_23923" x="0" y="0" width="64" height="64" filterUnits="userSpaceOnUse" color-interpolation-filters="sRGB">
<feFlood flood-opacity="0" result="BackgroundImageFix"/>
<feColorMatrix in="SourceAlpha" type="matrix" values="0 0 0 0 0 0 0 0 0 0 0 0 0 0 0 0 0 0 127 0" result="hardAlpha"/>
<feOffset dy="4"/>
<feGaussianBlur stdDeviation="2"/>
<feComposite in2="hardAlpha" operator="out"/>
<feColorMatrix type="matrix" values="0 0 0 0 0 0 0 0 0 0 0 0 0 0 0 0 0 0 0.25 0"/>
<feBlend mode="normal" in2="BackgroundImageFix" result="effect1_dropShadow_506_23923"/>
<feBlend mode="normal" in="SourceGraphic" in2="effect1_dropShadow_506_23923" result="shape"/>
</filter>
</defs>
</svg>
