<svg width="64" height="64" viewBox="0 0 64 64" fill="none" xmlns="http://www.w3.org/2000/svg">
<g filter="url(#filter0_d_506_23859)">
<path d="M32 56C47.464 56 60 43.464 60 28C60 12.536 47.464 0 32 0C16.536 0 4 12.536 4 28C4 43.464 16.536 56 32 56Z" fill="white"/>
</g>
<path d="M20.7877 9.84343C17.7911 9.84343 15.3533 12.2816 15.3533 15.2775V22.6222C15.3533 23.5056 16.0738 24.2241 16.9572 24.2241H24.6205C25.5039 24.2241 26.2213 23.5056 26.2213 22.6222V15.2775C26.2213 12.2816 23.7835 9.84343 20.7877 9.84343ZM24.6205 25.0675H16.9572C15.6079 25.0675 14.5109 23.9708 14.5109 22.6222V15.2775C14.5109 11.8167 17.3262 9 20.7877 9C24.2494 9 27.0638 11.8167 27.0638 15.2775V22.6222C27.0638 23.9708 25.9664 25.0675 24.6205 25.0675Z" fill="#787878" stroke="#787878" stroke-width="0.666709" stroke-miterlimit="22.9256"/>
<path d="M32.4988 9.84343C29.5026 9.84343 27.0637 12.2816 27.0637 15.2775V22.6222C27.0637 23.5056 27.7846 24.2241 28.6687 24.2241H36.3313C37.2144 24.2241 37.9332 23.5056 37.9332 22.6222V15.2775C37.9332 12.2816 35.4974 9.84343 32.4988 9.84343ZM36.3313 25.0675H28.6687C27.3197 25.0675 26.2213 23.9708 26.2213 22.6222V15.2775C26.2213 11.8167 29.037 9 32.4988 9C35.9599 9 38.7776 11.8167 38.7776 15.2775V22.6222C38.7776 23.9708 37.6803 25.0675 36.3313 25.0675Z" fill="#787878" stroke="#787878" stroke-width="0.666709" stroke-miterlimit="22.9256"/>
<path d="M44.2094 9.84343C41.2135 9.84343 38.7777 12.2816 38.7777 15.2775V22.6222C38.7777 23.5056 39.4951 24.2241 40.3795 24.2241H48.0422C48.9266 24.2241 49.6441 23.5056 49.6441 22.6222V15.2775C49.6441 12.2816 47.2083 9.84343 44.2094 9.84343ZM48.0422 25.0675H40.3795C39.0306 25.0675 37.9332 23.9708 37.9332 22.6222V15.2775C37.9332 11.8167 40.7496 9 44.2094 9C47.6721 9 50.4885 11.8167 50.4885 15.2775V22.6222C50.4885 23.9708 49.3911 25.0675 48.0422 25.0675Z" fill="#787878" stroke="#787878" stroke-width="0.666709" stroke-miterlimit="22.9256"/>
<path d="M19.4746 16.8708C19.1377 16.8708 18.8675 17.141 18.8675 17.4755V20.105C18.8675 20.4395 19.1377 20.7111 19.4746 20.7111H22.1034C22.4369 20.7111 22.7075 20.4395 22.7075 20.105V17.4755C22.7075 17.141 22.4369 16.8708 22.1034 16.8708H19.4746ZM22.1034 21.5541H19.4746C18.6755 21.5541 18.0261 20.9037 18.0261 20.105V17.4755C18.0261 16.6778 18.6755 16.0273 19.4746 16.0273H22.1034C22.9025 16.0273 23.5519 16.6778 23.5519 17.4755V20.105C23.5519 20.9037 22.9025 21.5541 22.1034 21.5541Z" fill="#306CFE" stroke="#306CFE" stroke-width="0.666709" stroke-miterlimit="22.9256"/>
<path d="M31.1854 16.8708C30.8495 16.8708 30.579 17.141 30.579 17.4755V20.105C30.579 20.4395 30.8495 20.7111 31.1854 20.7111H33.8142C34.1477 20.7111 34.4193 20.4395 34.4193 20.105V17.4755C34.4193 17.141 34.1477 16.8708 33.8142 16.8708H31.1854ZM33.8142 21.5541H31.1854C30.386 21.5541 29.7366 20.9037 29.7366 20.105V17.4755C29.7366 16.6778 30.386 16.0273 31.1854 16.0273H33.8142C34.6133 16.0273 35.2634 16.6778 35.2634 17.4755V20.105C35.2634 20.9037 34.6133 21.5541 33.8142 21.5541Z" fill="#306CFE" stroke="#306CFE" stroke-width="0.666709" stroke-miterlimit="22.9256"/>
<path d="M42.897 16.8708C42.5601 16.8708 42.2896 17.141 42.2896 17.4755V20.105C42.2896 20.4395 42.5601 20.7111 42.897 20.7111H45.5248C45.8593 20.7111 46.1298 20.4395 46.1298 20.105V17.4755C46.1298 17.141 45.8593 16.8708 45.5248 16.8708H42.897ZM45.5248 21.5541H42.897C42.0965 21.5541 41.4471 20.9037 41.4471 20.105V17.4755C41.4471 16.6778 42.0965 16.0273 42.897 16.0273H45.5248C46.3252 16.0273 46.9743 16.6778 46.9743 17.4755V20.105C46.9743 20.9037 46.3252 21.5541 45.5248 21.5541Z" fill="#306CFE" stroke="#306CFE" stroke-width="0.666709" stroke-miterlimit="22.9256"/>
<path d="M30.1572 19.2126H23.1311C22.8971 19.2126 22.7072 19.0236 22.7072 18.791C22.7072 18.5577 22.8971 18.3691 23.1311 18.3691H30.1572C30.3891 18.3691 30.5787 18.5577 30.5787 18.791C30.5787 19.0236 30.3891 19.2126 30.1572 19.2126Z" fill="#306CFE" stroke="#306CFE" stroke-width="0.666709" stroke-miterlimit="22.9256"/>
<path d="M53.5794 19.2126H46.5523C46.3187 19.2126 46.1298 19.0236 46.1298 18.791C46.1298 18.5577 46.3187 18.3691 46.5523 18.3691H53.5794C53.8134 18.3691 53.9999 18.5577 53.9999 18.791C53.9999 19.0236 53.8134 19.2126 53.5794 19.2126Z" fill="#306CFE" stroke="#306CFE" stroke-width="0.666709" stroke-miterlimit="22.9256"/>
<path d="M41.8676 19.2126H34.8419C34.6083 19.2126 34.4193 19.0236 34.4193 18.791C34.4193 18.5577 34.6083 18.3691 34.8419 18.3691H41.8676C42.0996 18.3691 42.2895 18.5577 42.2895 18.791C42.2895 19.0236 42.0996 19.2126 41.8676 19.2126Z" fill="#306CFE" stroke="#306CFE" stroke-width="0.666709" stroke-miterlimit="22.9256"/>
<path d="M18.447 19.2126H11.4209C11.1866 19.2126 11 19.0236 11 18.791C11 18.5577 11.1866 18.3691 11.4209 18.3691H18.447C18.6786 18.3691 18.8675 18.5577 18.8675 18.791C18.8675 19.0236 18.6786 19.2126 18.447 19.2126Z" fill="#306CFE" stroke="#306CFE" stroke-width="0.666709" stroke-miterlimit="22.9256"/>
<path d="M20.7877 46.6214C17.7911 46.6214 15.3533 44.1832 15.3533 41.1874V33.8427C15.3533 32.9593 16.0738 32.2408 16.9572 32.2408H24.6205C25.5039 32.2408 26.2213 32.9593 26.2213 33.8427V41.1874C26.2213 44.1832 23.7835 46.6214 20.7877 46.6214ZM24.6205 31.3974H16.9572C15.6079 31.3974 14.5109 32.494 14.5109 33.8427V41.1874C14.5109 44.6481 17.3262 47.4648 20.7877 47.4648C24.2494 47.4648 27.0638 44.6481 27.0638 41.1874V33.8427C27.0638 32.494 25.9664 31.3974 24.6205 31.3974Z" fill="#787878" stroke="#787878" stroke-width="0.666709" stroke-miterlimit="22.9256"/>
<path d="M32.4988 46.6214C29.5026 46.6214 27.0637 44.1832 27.0637 41.1874V33.8427C27.0637 32.9593 27.7846 32.2408 28.6687 32.2408H36.3313C37.2144 32.2408 37.9332 32.9593 37.9332 33.8427V41.1874C37.9332 44.1832 35.4974 46.6214 32.4988 46.6214ZM36.3313 31.3974H28.6687C27.3197 31.3974 26.2213 32.494 26.2213 33.8427V41.1874C26.2213 44.6481 29.037 47.4648 32.4988 47.4648C35.9599 47.4648 38.7776 44.6481 38.7776 41.1874V33.8427C38.7776 32.494 37.6803 31.3974 36.3313 31.3974Z" fill="#787878" stroke="#787878" stroke-width="0.666709" stroke-miterlimit="22.9256"/>
<path d="M44.2094 46.6214C41.2135 46.6214 38.7777 44.1832 38.7777 41.1874V33.8427C38.7777 32.9593 39.4951 32.2408 40.3795 32.2408H48.0422C48.9266 32.2408 49.6441 32.9593 49.6441 33.8427V41.1874C49.6441 44.1832 47.2083 46.6214 44.2094 46.6214ZM48.0422 31.3974H40.3795C39.0306 31.3974 37.9332 32.494 37.9332 33.8427V41.1874C37.9332 44.6481 40.7496 47.4648 44.2094 47.4648C47.6721 47.4648 50.4885 44.6481 50.4885 41.1874V33.8427C50.4885 32.494 49.3911 31.3974 48.0422 31.3974Z" fill="#787878" stroke="#787878" stroke-width="0.666709" stroke-miterlimit="22.9256"/>
<path d="M19.4746 39.5941C19.1377 39.5941 18.8675 39.3239 18.8675 38.9894V36.3599C18.8675 36.0253 19.1377 35.7538 19.4746 35.7538H22.1034C22.4369 35.7538 22.7075 36.0253 22.7075 36.3599V38.9894C22.7075 39.3239 22.4369 39.5941 22.1034 39.5941H19.4746ZM22.1034 34.9107H19.4746C18.6755 34.9107 18.0261 35.5611 18.0261 36.3599V38.9894C18.0261 39.7871 18.6755 40.4375 19.4746 40.4375H22.1034C22.9025 40.4375 23.5519 39.7871 23.5519 38.9894V36.3599C23.5519 35.5611 22.9025 34.9107 22.1034 34.9107Z" fill="#306CFE" stroke="#306CFE" stroke-width="0.666709" stroke-miterlimit="22.9256"/>
<path d="M31.1854 39.5941C30.8495 39.5941 30.579 39.3239 30.579 38.9894V36.3599C30.579 36.0253 30.8495 35.7538 31.1854 35.7538H33.8142C34.1477 35.7538 34.4193 36.0253 34.4193 36.3599V38.9894C34.4193 39.3239 34.1477 39.5941 33.8142 39.5941H31.1854ZM33.8142 34.9107H31.1854C30.386 34.9107 29.7366 35.5611 29.7366 36.3599V38.9894C29.7366 39.7871 30.386 40.4375 31.1854 40.4375H33.8142C34.6133 40.4375 35.2634 39.7871 35.2634 38.9894V36.3599C35.2634 35.5611 34.6133 34.9107 33.8142 34.9107Z" fill="#306CFE" stroke="#306CFE" stroke-width="0.666709" stroke-miterlimit="22.9256"/>
<path d="M42.897 39.5941C42.5601 39.5941 42.2896 39.3239 42.2896 38.9894V36.3599C42.2896 36.0253 42.5601 35.7538 42.897 35.7538H45.5248C45.8593 35.7538 46.1298 36.0253 46.1298 36.3599V38.9894C46.1298 39.3239 45.8593 39.5941 45.5248 39.5941H42.897ZM45.5248 34.9107H42.897C42.0965 34.9107 41.4471 35.5611 41.4471 36.3599V38.9894C41.4471 39.7871 42.0965 40.4375 42.897 40.4375H45.5248C46.3252 40.4375 46.9743 39.7871 46.9743 38.9894V36.3599C46.9743 35.5611 46.3252 34.9107 45.5248 34.9107Z" fill="#306CFE" stroke="#306CFE" stroke-width="0.666709" stroke-miterlimit="22.9256"/>
<path d="M30.1572 37.2523H23.1311C22.8971 37.2523 22.7072 37.4412 22.7072 37.6738C22.7072 37.9071 22.8971 38.0957 23.1311 38.0957H30.1572C30.3891 38.0957 30.5787 37.9071 30.5787 37.6738C30.5787 37.4412 30.3891 37.2523 30.1572 37.2523Z" fill="#306CFE" stroke="#306CFE" stroke-width="0.666709" stroke-miterlimit="22.9256"/>
<path d="M53.5794 37.2523H46.5523C46.3187 37.2523 46.1298 37.4412 46.1298 37.6738C46.1298 37.9071 46.3187 38.0957 46.5523 38.0957H53.5794C53.8134 38.0957 53.9999 37.9071 53.9999 37.6738C53.9999 37.4412 53.8134 37.2523 53.5794 37.2523Z" fill="#306CFE" stroke="#306CFE" stroke-width="0.666709" stroke-miterlimit="22.9256"/>
<path d="M41.8676 37.2523H34.8419C34.6083 37.2523 34.4193 37.4412 34.4193 37.6738C34.4193 37.9071 34.6083 38.0957 34.8419 38.0957H41.8676C42.0996 38.0957 42.2895 37.9071 42.2895 37.6738C42.2895 37.4412 42.0996 37.2523 41.8676 37.2523Z" fill="#306CFE" stroke="#306CFE" stroke-width="0.666709" stroke-miterlimit="22.9256"/>
<path d="M18.447 37.2523H11.4209C11.1866 37.2523 11 37.4412 11 37.6738C11 37.9071 11.1866 38.0957 11.4209 38.0957H18.447C18.6786 38.0957 18.8675 37.9071 18.8675 37.6738C18.8675 37.4412 18.6786 37.2523 18.447 37.2523Z" fill="#306CFE" stroke="#306CFE" stroke-width="0.666709" stroke-miterlimit="22.9256"/>
<defs>
<filter id="filter0_d_506_23859" x="0" y="0" width="64" height="64" filterUnits="userSpaceOnUse" color-interpolation-filters="sRGB">
<feFlood flood-opacity="0" result="BackgroundImageFix"/>
<feColorMatrix in="SourceAlpha" type="matrix" values="0 0 0 0 0 0 0 0 0 0 0 0 0 0 0 0 0 0 127 0" result="hardAlpha"/>
<feOffset dy="4"/>
<feGaussianBlur stdDeviation="2"/>
<feComposite in2="hardAlpha" operator="out"/>
<feColorMatrix type="matrix" values="0 0 0 0 0 0 0 0 0 0 0 0 0 0 0 0 0 0 0.25 0"/>
<feBlend mode="normal" in2="BackgroundImageFix" result="effect1_dropShadow_506_23859"/>
<feBlend mode="normal" in="SourceGraphic" in2="effect1_dropShadow_506_23859" result="shape"/>
</filter>
</defs>
</svg>
