<svg width="64" height="64" viewBox="0 0 64 64" fill="none" xmlns="http://www.w3.org/2000/svg">
<g filter="url(#filter0_d_506_23792)">
<path d="M32 56C47.464 56 60 43.464 60 28C60 12.536 47.464 0 32 0C16.536 0 4 12.536 4 28C4 43.464 16.536 56 32 56Z" fill="white"/>
</g>
<path fill-rule="evenodd" clip-rule="evenodd" d="M10.4917 34.3608C16.5062 37.0413 11.9832 33.9727 17.2976 36.126C18.8012 36.735 21.8507 36.6142 25.4061 37.8077C28.7407 38.9271 26.6114 38.565 31.3038 38.4417C35.6242 38.3284 34.1975 39.2036 38.5646 37.7917L45.5617 36.4368C47.1647 36.1208 47.1062 35.6956 47.7063 35.5203C49.2688 35.0637 50.0171 35.9482 52.9842 34.5375C53.3296 32.6496 53.5919 27.7452 53.7184 25.6037C53.9162 22.2493 52.2431 21.6644 49.5044 20.526C36.0895 14.9497 10.6182 17.6995 10.0347 24.4572C9.83864 26.7289 10.5388 31.4072 10.4917 34.3608Z" fill="#787878" stroke="#787878" stroke-width="0.666709" stroke-miterlimit="22.9256"/>
<path fill-rule="evenodd" clip-rule="evenodd" d="M11.1202 28.6896C14.8394 22.9786 14.8564 27.8178 16.4248 28.4058C18.1824 27.54 19.3548 26.2824 20.9378 28.842C22.6396 25.173 24.0681 26.3098 25.7667 28.99C28.6787 22.0563 30.9203 24.7853 31.8263 28.9709C34.8997 24.4749 36.0451 24.873 38.2254 28.99C40.1108 25.0143 41.1894 25.2465 43.0543 28.842C44.8403 26.0932 46.5287 27.6651 47.9672 28.859C49.4753 28.034 50.8036 27.9346 52.5304 28.6955C53.3674 21.46 52.2365 22.1831 45.7869 20.1324C36.4429 17.1612 18.9671 17.7148 12.2119 22.4259C9.9689 23.9902 10.9414 25.5999 11.1202 28.6896Z" fill="white" stroke="#787878" stroke-width="0.666709" stroke-miterlimit="22.9256"/>
<path fill-rule="evenodd" clip-rule="evenodd" d="M37.2592 37.2222C38.4645 35.0929 37.827 23.7322 33.1055 29.0129C31.9729 30.2806 32.2452 33.7337 32.3162 35.5661C32.38 37.2281 32.7136 38.5367 36.2572 37.6504C37.4539 37.3514 36.5468 37.7495 37.2592 37.2222Z" fill="white" stroke="#787878" stroke-width="0.666709" stroke-miterlimit="22.9256"/>
<path fill-rule="evenodd" clip-rule="evenodd" d="M26.3134 31.8258C26.3134 38.4518 25.6676 37.7388 29.4582 37.7388C32.1263 37.7388 31.5966 37.2538 31.5966 31.8258C31.5966 27.1957 26.3134 26.0853 26.3134 31.8258Z" fill="white" stroke="#787878" stroke-width="0.666709" stroke-miterlimit="22.9256"/>
<path fill-rule="evenodd" clip-rule="evenodd" d="M42.6635 35.8018C42.7643 31.3882 43.3488 29.5 40.5328 28.3789C38.181 29.6795 38.3175 31.0023 38.3667 34.1721C38.4235 37.8258 40.3177 37.2753 42.6635 35.8018Z" fill="white" stroke="#787878" stroke-width="0.666709" stroke-miterlimit="22.9256"/>
<path fill-rule="evenodd" clip-rule="evenodd" d="M21.2167 31.364L21.2773 35.8953C28.6579 39.4721 25.4795 29.6871 23.4597 28.3848C21.7873 28.998 21.2167 29.4096 21.2167 31.364Z" fill="white" stroke="#787878" stroke-width="0.666709" stroke-miterlimit="22.9256"/>
<path fill-rule="evenodd" clip-rule="evenodd" d="M17.7306 28.3808C15.5431 29.5941 16.0777 36.472 19.2197 35.795C20.8204 35.4503 20.5959 33.1775 20.4815 31.3319C20.3662 29.4704 19.5461 27.3736 17.7306 28.3808Z" fill="white" stroke="#787878" stroke-width="0.666709" stroke-miterlimit="22.9256"/>
<path fill-rule="evenodd" clip-rule="evenodd" d="M43.7039 35.5902C47.04 36.2253 47.4297 34.5262 47.4297 31.3655C47.4297 28.9458 47.1477 28.2505 44.6591 28.2207C43.0498 30.1266 43.3363 32.3948 43.7039 35.5902Z" fill="white" stroke="#787878" stroke-width="0.666709" stroke-miterlimit="22.9256"/>
<path fill-rule="evenodd" clip-rule="evenodd" d="M11.5228 29.5806L11.3031 33.2101C11.4846 33.9002 15.5015 37.0797 15.734 32.3183C15.7721 31.5356 15.6529 30.3771 15.5864 29.5806C13.7013 28.7044 13.3829 28.4924 11.5228 29.5806Z" fill="white" stroke="#787878" stroke-width="0.666709" stroke-miterlimit="22.9256"/>
<path fill-rule="evenodd" clip-rule="evenodd" d="M48.3157 29.4488L48.3115 34.6702C50.6848 34.9772 50.8154 34.6879 52.2719 33.8013L52.3713 29.7654L51.0853 28.7832L48.3157 29.4488Z" fill="white" stroke="#787878" stroke-width="0.666709" stroke-miterlimit="22.9256"/>
<path fill-rule="evenodd" clip-rule="evenodd" d="M34.7123 13.6516C38.375 14.3022 41.507 14.358 45.086 15.3056C48.4833 16.2046 50.8763 17.3518 54 18.4691C53.3681 17.0573 52.9211 17.0132 49.9551 15.9427L39.6005 13.4143C38.6051 13.2746 37.4406 13.1177 36.4453 13.0443C33.9313 12.8596 35.0878 13.2899 34.7123 13.6516Z" fill="#306CFE" stroke="#306CFE" stroke-width="0.666709" stroke-miterlimit="22.9256"/>
<path d="M20.2088 26.4775C20.4638 26.4775 20.6703 26.2967 20.6703 26.0736C20.6703 25.8504 20.4638 25.6699 20.2088 25.6699C19.9542 25.6699 19.7473 25.8504 19.7473 26.0736C19.7473 26.2967 19.9542 26.4775 20.2088 26.4775Z" fill="#787878" stroke="#787878" stroke-width="0.666709" stroke-miterlimit="22.9256"/>
<path d="M22.2854 25.0908C22.5401 25.0908 22.7469 24.91 22.7469 24.6868C22.7469 24.4641 22.5401 24.2832 22.2854 24.2832C22.0304 24.2832 21.824 24.4641 21.824 24.6868C21.824 24.91 22.0304 25.0908 22.2854 25.0908Z" fill="#306CFE" stroke="#306CFE" stroke-width="0.666709" stroke-miterlimit="22.9256"/>
<path d="M18.2478 24.167C18.5025 24.167 18.7093 23.9865 18.7093 23.7634C18.7093 23.5402 18.5025 23.3594 18.2478 23.3594C17.9928 23.3594 17.7864 23.5402 17.7864 23.7634C17.7864 23.9865 17.9928 24.167 18.2478 24.167Z" fill="#306CFE" stroke="#306CFE" stroke-width="0.666709" stroke-miterlimit="22.9256"/>
<path d="M29.3225 22.1494C29.5774 22.1494 29.784 21.9689 29.784 21.7458C29.784 21.5227 29.5774 21.3418 29.3225 21.3418C29.0678 21.3418 28.861 21.5227 28.861 21.7458C28.861 21.9689 29.0678 22.1494 29.3225 22.1494Z" fill="#306CFE" stroke="#306CFE" stroke-width="0.666709" stroke-miterlimit="22.9256"/>
<path d="M31.3991 23.5341C31.6537 23.5341 31.8606 23.3533 31.8606 23.1305C31.8606 22.9074 31.6537 22.7266 31.3991 22.7266C31.1441 22.7266 30.9376 22.9074 30.9376 23.1305C30.9376 23.3533 31.1441 23.5341 31.3991 23.5341Z" fill="#787878" stroke="#787878" stroke-width="0.666709" stroke-miterlimit="22.9256"/>
<path d="M27.3615 24.4556C27.6162 24.4556 27.823 24.2752 27.823 24.0521C27.823 23.829 27.6162 23.6484 27.3615 23.6484C27.1065 23.6484 26.9 23.829 26.9 24.0521C26.9 24.2752 27.1065 24.4556 27.3615 24.4556Z" fill="#787878" stroke="#787878" stroke-width="0.666709" stroke-miterlimit="22.9256"/>
<path d="M45.7037 24.4556C45.9583 24.4556 46.1651 24.2752 46.1651 24.0521C46.1651 23.829 45.9583 23.6484 45.7037 23.6484C45.4487 23.6484 45.2418 23.829 45.2418 24.0521C45.2418 24.2752 45.4487 24.4556 45.7037 24.4556Z" fill="#787878" stroke="#787878" stroke-width="0.666709" stroke-miterlimit="22.9256"/>
<path d="M43.627 25.8408C43.882 25.8408 44.0885 25.66 44.0885 25.4372C44.0885 25.2141 43.882 25.0332 43.627 25.0332C43.372 25.0332 43.1655 25.2141 43.1655 25.4372C43.1655 25.66 43.372 25.8408 43.627 25.8408Z" fill="#787878" stroke="#787878" stroke-width="0.666709" stroke-miterlimit="22.9256"/>
<path d="M47.6646 26.7643C47.9196 26.7643 48.1261 26.5838 48.1261 26.3607C48.1261 26.1375 47.9196 25.957 47.6646 25.957C47.4096 25.957 47.2031 26.1375 47.2031 26.3607C47.2031 26.5838 47.4096 26.7643 47.6646 26.7643Z" fill="#306CFE" stroke="#306CFE" stroke-width="0.666709" stroke-miterlimit="22.9256"/>
<path d="M39.5731 23.684C39.6455 23.9283 39.5312 24.1781 39.3174 24.2415C39.1036 24.3049 38.8715 24.1583 38.7987 23.9141C38.7263 23.6698 38.8407 23.42 39.0544 23.3566C39.2682 23.2932 39.5003 23.4398 39.5731 23.684Z" fill="#306CFE" stroke="#306CFE" stroke-width="0.666709" stroke-miterlimit="22.9256"/>
<path d="M36.8032 22.4634C36.8759 22.7076 36.7613 22.9571 36.5475 23.0205C36.3337 23.0842 36.1016 22.9377 36.0292 22.6931C35.9564 22.4489 36.0711 22.1994 36.2849 22.136C36.4986 22.0723 36.7308 22.2188 36.8032 22.4634Z" fill="#787878" stroke="#787878" stroke-width="0.666709" stroke-miterlimit="22.9256"/>
<defs>
<filter id="filter0_d_506_23792" x="0" y="0" width="64" height="64" filterUnits="userSpaceOnUse" color-interpolation-filters="sRGB">
<feFlood flood-opacity="0" result="BackgroundImageFix"/>
<feColorMatrix in="SourceAlpha" type="matrix" values="0 0 0 0 0 0 0 0 0 0 0 0 0 0 0 0 0 0 127 0" result="hardAlpha"/>
<feOffset dy="4"/>
<feGaussianBlur stdDeviation="2"/>
<feComposite in2="hardAlpha" operator="out"/>
<feColorMatrix type="matrix" values="0 0 0 0 0 0 0 0 0 0 0 0 0 0 0 0 0 0 0.25 0"/>
<feBlend mode="normal" in2="BackgroundImageFix" result="effect1_dropShadow_506_23792"/>
<feBlend mode="normal" in="SourceGraphic" in2="effect1_dropShadow_506_23792" result="shape"/>
</filter>
</defs>
</svg>
