<svg width="64" height="64" viewBox="0 0 64 64" fill="none" xmlns="http://www.w3.org/2000/svg">
<g filter="url(#filter0_d_506_23893)">
<path d="M32 56C47.464 56 60 43.464 60 28C60 12.536 47.464 0 32 0C16.536 0 4 12.536 4 28C4 43.464 16.536 56 32 56Z" fill="white"/>
</g>
<path fill-rule="evenodd" clip-rule="evenodd" d="M16.2533 28.4335C20.6985 30.4147 17.3556 28.1468 21.2834 29.7382C22.3942 30.1882 24.648 30.0989 27.2756 30.9811C29.7401 31.8082 28.1666 31.5408 31.6344 31.4496C34.8276 31.3657 33.7732 32.0128 37.0006 30.9691L42.1719 29.9679C43.3565 29.7344 43.3135 29.4202 43.7569 29.2905C44.9116 28.953 45.4648 29.6069 47.6574 28.5642C47.9128 27.1689 48.1064 23.5443 48.2 21.9618C48.3462 19.4826 47.1097 19.0504 45.0859 18.2089C35.1715 14.0878 16.3469 16.1201 15.9158 21.1143C15.7709 22.7934 16.2881 26.2508 16.2533 28.4335Z" fill="#787878" stroke="#787878" stroke-miterlimit="22.9256"/>
<path fill-rule="evenodd" clip-rule="evenodd" d="M16.7179 24.2439C19.6565 23.2593 19.5367 24.5768 20.6382 24.034C21.937 23.3941 22.8034 22.4648 23.9733 24.3562C25.3695 23.0285 26.3763 23.3796 27.5423 24.4659C29.2615 22.2926 31.0954 23.1317 32.0207 24.4517C33.8912 22.7325 34.8568 22.5506 36.7501 24.4659C38.0222 23.1029 38.8344 23.0796 40.319 24.3562C41.6387 22.325 42.8868 23.4866 43.9497 24.3691C45.0646 23.7594 46.0463 23.6861 47.3218 24.2482C47.9406 18.9007 47.1047 19.4353 42.3386 17.9196C35.4329 15.7236 22.517 16.133 17.5249 19.6144C15.867 20.7707 16.5858 21.9602 16.7179 24.2439Z" fill="white" stroke="#787878" stroke-miterlimit="22.9256"/>
<path fill-rule="evenodd" clip-rule="evenodd" d="M36.0358 30.5482C36.9268 28.9748 36.4557 20.5785 32.9662 24.4814C32.1289 25.4182 32.3303 27.9704 32.3827 29.3246C32.43 30.5528 32.6766 31.5197 35.2956 30.8651C36.1797 30.644 35.5093 30.9381 36.0358 30.5482Z" fill="white" stroke="#787878" stroke-miterlimit="22.9256"/>
<path fill-rule="evenodd" clip-rule="evenodd" d="M27.9462 26.5601C27.9462 31.457 27.4689 30.9301 30.2703 30.9301C32.2425 30.9301 31.8508 30.5715 31.8508 26.5601C31.8508 23.1382 27.9462 22.3175 27.9462 26.5601Z" fill="white" stroke="#787878" stroke-miterlimit="22.9256"/>
<path fill-rule="evenodd" clip-rule="evenodd" d="M40.0302 29.4975C40.1046 26.2358 40.5367 24.8402 38.4554 24.0117C36.7172 24.9728 36.8183 25.9505 36.8547 28.2933C36.8967 30.9934 38.2963 30.5867 40.0302 29.4975Z" fill="white" stroke="#787878" stroke-miterlimit="22.9256"/>
<path fill-rule="evenodd" clip-rule="evenodd" d="M24.1794 26.2172L24.2244 29.5661C29.6788 32.2095 27.3299 24.978 25.8372 24.0156C24.6012 24.4689 24.1794 24.7729 24.1794 26.2172Z" fill="white" stroke="#787878" stroke-miterlimit="22.9256"/>
<path fill-rule="evenodd" clip-rule="evenodd" d="M21.6032 24.0136C19.9866 24.9103 20.3816 29.9933 22.7036 29.4929C23.8864 29.2384 23.7206 27.5587 23.6361 26.1944C23.551 24.8188 22.9448 23.2694 21.6032 24.0136Z" fill="white" stroke="#787878" stroke-miterlimit="22.9256"/>
<path fill-rule="evenodd" clip-rule="evenodd" d="M40.799 29.341C43.2645 29.8103 43.5525 28.5545 43.5525 26.2186C43.5525 24.4302 43.344 23.9162 41.505 23.8945C40.3158 25.303 40.5273 26.9792 40.799 29.341Z" fill="white" stroke="#787878" stroke-miterlimit="22.9256"/>
<path fill-rule="evenodd" clip-rule="evenodd" d="M17.0152 24.8994L16.8529 27.5818C16.9871 28.0918 19.956 30.4416 20.1277 26.9229C20.156 26.3445 20.0678 25.4883 20.0188 24.8994C18.6253 24.252 18.3903 24.0953 17.0152 24.8994Z" fill="white" stroke="#787878" stroke-miterlimit="22.9256"/>
<path fill-rule="evenodd" clip-rule="evenodd" d="M44.2074 24.8043L44.2042 28.6633C45.9582 28.8898 46.0547 28.6762 47.1308 28.021L47.2044 25.0385L46.254 24.3125L44.2074 24.8043Z" fill="white" stroke="#787878" stroke-miterlimit="22.9256"/>
<path fill-rule="evenodd" clip-rule="evenodd" d="M16.8933 31.7872C16.3686 33.3796 17.2794 31.9789 15.6244 32.4343C15.3188 38.3487 16.0392 38.2779 21.4153 39.9508C28.8178 42.2543 37.7955 41.755 44.906 38.6196C47.1814 37.6163 47.5729 35.7577 47.1141 33.1515C46.5731 31.6625 46.9697 32.8084 46.5538 32.418C45.5492 31.4746 46.081 32.9854 45.7925 31.7872C44.9892 28.4538 45.8077 29.669 41.6962 29.4914C39.5278 29.3978 37.7642 30.4303 31.5326 30.2305C30.9021 30.2102 30.1028 30.4038 29.8185 30.4172C29.3412 30.4397 28.8895 30.2335 27.9223 30.2351C25.492 30.2388 23.0259 29.4957 21.7025 29.4339C16.9133 29.2104 16.8946 29.1333 16.8933 31.7872Z" fill="#787878" stroke="#787878" stroke-miterlimit="22.9256"/>
<path fill-rule="evenodd" clip-rule="evenodd" d="M46.5348 33.0547C43.6721 34.8629 44.9143 33.4462 41.6245 34.6244C40.4075 35.06 40.6263 34.7685 39.5697 34.9892C32.901 36.3819 38.2754 35.6951 31.8318 36.0297C28.13 36.2217 19.7698 34.6971 16.1843 33.1036C16.1287 38.1225 16.759 37.9002 21.3398 39.3298C24.2835 40.2484 27.9704 40.7565 31.2681 40.7739C34.7306 40.7921 38.0639 40.3348 41.2242 39.3421C46.07 37.8205 46.4931 38.3064 46.5348 33.0547Z" fill="white" stroke="#787878" stroke-miterlimit="22.9256"/>
<path fill-rule="evenodd" clip-rule="evenodd" d="M33.5308 35.3575C36.2768 35.9856 35.9682 35.3791 35.9682 31.7885C35.9682 30.3432 33.8787 30.5127 33.4607 31.2168C32.9342 32.1036 33.3321 34.6857 33.5308 35.3575Z" fill="white" stroke="#787878" stroke-miterlimit="22.9256"/>
<path fill-rule="evenodd" clip-rule="evenodd" d="M27.0791 30.946C26.5472 31.9336 26.5095 34.0213 27.0127 35.3599C29.6043 35.8244 29.4326 35.6554 29.4326 32.4687C29.4326 30.6195 28.8106 30.504 27.0791 30.946Z" fill="white" stroke="#787878" stroke-miterlimit="22.9256"/>
<path fill-rule="evenodd" clip-rule="evenodd" d="M26.1177 34.8544C26.1327 32.3038 26.9133 29.635 23.5829 30.5822C23.4853 33.309 22.7587 35.2387 26.1177 34.8544Z" fill="white" stroke="#787878" stroke-miterlimit="22.9256"/>
<path fill-rule="evenodd" clip-rule="evenodd" d="M30.0078 31.7871C30.0078 35.552 29.7038 35.9419 32.3881 35.356L32.4814 31.228C32.4605 31.1563 32.4156 31.0426 32.3712 30.9552C31.3668 30.6816 30.0078 30.5332 30.0078 31.7871Z" fill="white" stroke="#787878" stroke-miterlimit="22.9256"/>
<path fill-rule="evenodd" clip-rule="evenodd" d="M36.7247 30.8392L36.5774 34.8007C38.7084 35.1122 39.0938 34.9807 39.0938 33.1507V31.7866L39.0807 30.4576C37.8479 30.3146 37.6912 30.1667 36.7247 30.8392Z" fill="white" stroke="#787878" stroke-miterlimit="22.9256"/>
<path fill-rule="evenodd" clip-rule="evenodd" d="M22.8587 34.2778C23.1301 31.8165 23.7722 29.5347 20.6908 30.1449C20.3982 32.5584 20.0669 34.3214 22.8587 34.2778Z" fill="white" stroke="#787878" stroke-miterlimit="22.9256"/>
<path fill-rule="evenodd" clip-rule="evenodd" d="M40.0481 30.2925L39.7205 31.4378C39.2397 35.8606 42.5989 35.4234 42.0227 30.2417C40.7784 29.7988 41.2164 29.7785 40.0481 30.2925Z" fill="white" stroke="#787878" stroke-miterlimit="22.9256"/>
<path fill-rule="evenodd" clip-rule="evenodd" d="M45.1873 33.0878L45.1739 30.2875C43.6655 29.329 42.664 29.7636 42.6581 31.7922C42.6506 34.3289 43.6184 33.724 45.1873 33.0878Z" fill="white" stroke="#787878" stroke-miterlimit="22.9256"/>
<path fill-rule="evenodd" clip-rule="evenodd" d="M17.4688 31.4455L17.4907 33.2252C18.4622 33.5156 18.7392 33.8346 19.6425 33.5225C20.2025 33.0687 20.0033 31.0564 19.8362 30.2596C18.586 29.6822 17.4688 29.7065 17.4688 31.4455Z" fill="white" stroke="#787878" stroke-miterlimit="22.9256"/>
<path d="M12.8639 27.092L8.61865 24.2617" stroke="#306CFE" stroke-miterlimit="22.9256"/>
<path d="M13.0599 30.6895H8.8147" stroke="#306CFE" stroke-miterlimit="22.9256"/>
<path d="M13.172 34.209L8.92676 35.6241" stroke="#306CFE" stroke-miterlimit="22.9256"/>
<path d="M50.7549 27.092L55.0001 24.2617" stroke="#306CFE" stroke-miterlimit="22.9256"/>
<path d="M50.5588 30.6895H54.804" stroke="#306CFE" stroke-miterlimit="22.9256"/>
<path d="M50.4468 34.209L54.692 35.6241" stroke="#306CFE" stroke-miterlimit="22.9256"/>
<defs>
<filter id="filter0_d_506_23893" x="0" y="0" width="64" height="64" filterUnits="userSpaceOnUse" color-interpolation-filters="sRGB">
<feFlood flood-opacity="0" result="BackgroundImageFix"/>
<feColorMatrix in="SourceAlpha" type="matrix" values="0 0 0 0 0 0 0 0 0 0 0 0 0 0 0 0 0 0 127 0" result="hardAlpha"/>
<feOffset dy="4"/>
<feGaussianBlur stdDeviation="2"/>
<feComposite in2="hardAlpha" operator="out"/>
<feColorMatrix type="matrix" values="0 0 0 0 0 0 0 0 0 0 0 0 0 0 0 0 0 0 0.25 0"/>
<feBlend mode="normal" in2="BackgroundImageFix" result="effect1_dropShadow_506_23893"/>
<feBlend mode="normal" in="SourceGraphic" in2="effect1_dropShadow_506_23893" result="shape"/>
</filter>
</defs>
</svg>
