<svg width="64" height="64" viewBox="0 0 64 64" fill="none" xmlns="http://www.w3.org/2000/svg">
<g filter="url(#filter0_d_506_23817)">
<path d="M32 56C47.464 56 60 43.464 60 28C60 12.536 47.464 0 32 0C16.536 0 4 12.536 4 28C4 43.464 16.536 56 32 56Z" fill="white"/>
</g>
<path fill-rule="evenodd" clip-rule="evenodd" d="M16.3589 25.6004C20.7513 27.5582 17.4481 25.3172 21.3292 26.8896C22.4271 27.3346 24.6544 27.2464 27.2506 28.1178C29.6858 28.9354 28.131 28.6712 31.5577 28.5811C34.713 28.4981 33.6711 29.137 36.8599 28.1062L41.9698 27.1167C43.1404 26.8862 43.0979 26.5755 43.536 26.4476C44.677 26.1141 45.2237 26.7602 47.3904 25.7294C47.6428 24.3506 47.8341 20.7691 47.9266 19.2053C48.0711 16.7555 46.8493 16.3285 44.8492 15.4972C35.0525 11.425 16.4513 13.4329 16.0254 18.3679C15.8822 20.0271 16.3932 23.4437 16.3589 25.6004Z" fill="#787878" stroke="#787878" stroke-miterlimit="22.9256"/>
<path fill-rule="evenodd" clip-rule="evenodd" d="M17.6901 35.2053C17.1719 36.7789 18.0719 35.3948 16.4366 35.8448C16.1345 41.689 16.8464 41.6189 22.159 43.2718C29.4737 45.5482 38.3445 45.0549 45.3706 41.9566C47.6193 40.9652 48.0061 39.1287 47.5524 36.5535C47.0179 35.0822 47.4097 36.2144 46.9989 35.8286C46.0061 34.8964 46.5317 36.3894 46.2466 35.2053C45.4528 31.9113 46.2616 33.112 42.1989 32.9368C40.0562 32.8443 38.3135 33.8646 32.1562 33.6669C31.5331 33.6471 30.7433 33.8384 30.4624 33.8516C29.9908 33.8738 29.5445 33.6701 28.5887 33.6717C26.1873 33.6754 23.7505 32.941 22.4427 32.88C17.7102 32.6591 17.6917 32.583 17.6901 35.2053Z" fill="#787878" stroke="#787878" stroke-miterlimit="22.9256"/>
<path fill-rule="evenodd" clip-rule="evenodd" d="M16.8178 21.4594C19.7218 20.4865 19.6032 21.7883 20.6919 21.2522C21.9753 20.6199 22.8314 19.7014 23.9875 21.5706C25.3671 20.2584 26.3619 20.6054 27.514 21.6787C29.2128 19.5315 31.025 20.3607 31.9392 21.6649C33.7876 19.9659 34.7418 19.7862 36.6123 21.6787C37.8693 20.3321 38.6718 20.3091 40.1389 21.5706C41.4429 19.5632 42.6761 20.7113 43.7265 21.583C44.8281 20.9806 45.7981 20.9082 47.0591 21.4636C47.6703 16.1798 46.8445 16.7078 42.1344 15.2101C35.3107 13.0402 22.5484 13.4447 17.6153 16.8851C15.977 18.0277 16.6873 19.203 16.8178 21.4594Z" fill="white" stroke="#787878" stroke-miterlimit="22.9256"/>
<path fill-rule="evenodd" clip-rule="evenodd" d="M46.9801 36.457C44.1514 38.2438 45.3788 36.8439 42.1281 38.0079C40.9255 38.4386 41.1417 38.1505 40.0974 38.3685C33.5083 39.7447 38.8187 39.0661 32.4519 39.3964C28.794 39.5864 20.5325 38.0803 16.9898 36.5056C16.9349 41.4644 17.5577 41.2451 22.0841 42.6577C24.9932 43.5654 28.6362 44.0674 31.8948 44.0846C35.316 44.1026 38.6097 43.6504 41.7325 42.6699C46.5206 41.1663 46.9388 41.6464 46.9801 36.457Z" fill="white" stroke="#787878" stroke-miterlimit="22.9256"/>
<path fill-rule="evenodd" clip-rule="evenodd" d="M35.9065 27.6889C36.787 26.1341 36.3214 17.8372 32.8736 21.6938C32.0463 22.6192 32.2452 25.1414 32.297 26.4795C32.3441 27.6932 32.5874 28.6487 35.1751 28.0018C36.0487 27.7833 35.3863 28.0739 35.9065 27.6889Z" fill="white" stroke="#787878" stroke-miterlimit="22.9256"/>
<path fill-rule="evenodd" clip-rule="evenodd" d="M27.9133 23.7485C27.9133 28.5878 27.4416 28.0673 30.2098 28.0673C32.1586 28.0673 31.7714 27.7129 31.7714 23.7485C31.7714 20.3673 27.9133 19.5563 27.9133 23.7485Z" fill="white" stroke="#787878" stroke-miterlimit="22.9256"/>
<path fill-rule="evenodd" clip-rule="evenodd" d="M39.8535 26.6513C39.927 23.4279 40.354 22.0491 38.2974 21.2305C36.5798 22.1801 36.6797 23.1462 36.7156 25.4609C36.7571 28.1295 38.1402 27.7273 39.8535 26.6513Z" fill="white" stroke="#787878" stroke-miterlimit="22.9256"/>
<path fill-rule="evenodd" clip-rule="evenodd" d="M24.1912 23.4101L24.2356 26.7195C29.6253 29.3312 27.3042 22.1854 25.8293 21.2344C24.6079 21.6823 24.1912 21.9827 24.1912 23.4101Z" fill="white" stroke="#787878" stroke-miterlimit="22.9256"/>
<path fill-rule="evenodd" clip-rule="evenodd" d="M21.6452 21.232C20.0479 22.118 20.4382 27.141 22.7328 26.6469C23.9018 26.3951 23.7378 24.7351 23.6543 23.3872C23.5702 22.0277 22.9712 20.4967 21.6452 21.232Z" fill="white" stroke="#787878" stroke-miterlimit="22.9256"/>
<path fill-rule="evenodd" clip-rule="evenodd" d="M40.6132 26.4973C43.0495 26.961 43.3341 25.7199 43.3341 23.4118C43.3341 21.6448 43.1282 21.1369 41.3108 21.1152C40.1357 22.507 40.3447 24.1635 40.6132 26.4973Z" fill="white" stroke="#787878" stroke-miterlimit="22.9256"/>
<path fill-rule="evenodd" clip-rule="evenodd" d="M17.1119 22.108L16.9515 24.7586C17.0839 25.2622 20.0175 27.5846 20.1872 24.1072C20.2152 23.5357 20.128 22.6896 20.0796 22.108C18.7027 21.468 18.4704 21.3131 17.1119 22.108Z" fill="white" stroke="#787878" stroke-miterlimit="22.9256"/>
<path fill-rule="evenodd" clip-rule="evenodd" d="M34.1306 38.7338C36.8438 39.3545 36.5389 38.7552 36.5389 35.2072C36.5389 33.779 34.4744 33.9463 34.0611 34.6423C33.5411 35.5185 33.9343 38.07 34.1306 38.7338Z" fill="white" stroke="#787878" stroke-miterlimit="22.9256"/>
<path fill-rule="evenodd" clip-rule="evenodd" d="M27.7555 34.3751C27.2299 35.3509 27.1927 37.4138 27.69 38.7366C30.2507 39.1956 30.0811 39.0286 30.0811 35.8797C30.0811 34.0524 29.4665 33.9383 27.7555 34.3751Z" fill="white" stroke="#787878" stroke-miterlimit="22.9256"/>
<path fill-rule="evenodd" clip-rule="evenodd" d="M43.9812 22.0133L43.978 25.8263C45.7112 26.0503 45.8066 25.8395 46.8701 25.1918L46.9428 22.2445L46.0034 21.5273L43.9812 22.0133Z" fill="white" stroke="#787878" stroke-miterlimit="22.9256"/>
<path fill-rule="evenodd" clip-rule="evenodd" d="M26.8056 38.2349C26.8204 35.7148 27.5914 33.0777 24.3008 34.0134C24.2044 36.7078 23.4865 38.6146 26.8056 38.2349Z" fill="white" stroke="#787878" stroke-miterlimit="22.9256"/>
<path fill-rule="evenodd" clip-rule="evenodd" d="M30.6495 35.2048C30.6495 38.925 30.3491 39.3103 33.0015 38.7313L33.0938 34.6522C33.0731 34.5814 33.0287 34.4691 32.9849 34.3825C31.9924 34.1124 30.6495 33.9657 30.6495 35.2048Z" fill="white" stroke="#787878" stroke-miterlimit="22.9256"/>
<path fill-rule="evenodd" clip-rule="evenodd" d="M32.1826 47.6756C31.4549 47.2489 31.3439 47.3697 30.2206 47.3102C22.2942 46.8895 22.0683 45.5371 16.2175 43.9062C17.3622 45.6518 21.3099 46.486 23.496 46.9846C24.9086 47.3065 26.4021 47.6099 27.8282 47.7428C29.0321 47.8551 31.2009 48.2995 32.1826 47.6756Z" fill="#306CFE" stroke="#306CFE" stroke-miterlimit="22.9256"/>
<path fill-rule="evenodd" clip-rule="evenodd" d="M37.2864 34.2688L37.1408 38.1832C39.2465 38.4911 39.6273 38.3611 39.6273 36.5529V35.205L39.6141 33.8917C38.3962 33.7504 38.2414 33.6042 37.2864 34.2688Z" fill="white" stroke="#787878" stroke-miterlimit="22.9256"/>
<path fill-rule="evenodd" clip-rule="evenodd" d="M23.5853 37.667C23.8535 35.235 24.4879 32.9802 21.4428 33.5832C21.1535 35.968 20.8264 37.7101 23.5853 37.667Z" fill="white" stroke="#787878" stroke-miterlimit="22.9256"/>
<path fill-rule="evenodd" clip-rule="evenodd" d="M40.5704 33.7294L40.2467 34.8611C39.7716 39.2314 43.091 38.7991 42.5216 33.6791C41.292 33.2416 41.7249 33.2215 40.5704 33.7294Z" fill="white" stroke="#787878" stroke-miterlimit="22.9256"/>
<path fill-rule="evenodd" clip-rule="evenodd" d="M45.6486 36.4922L45.6354 33.725C44.1448 32.778 43.1552 33.2074 43.1494 35.2119C43.142 37.7185 44.0983 37.1208 45.6486 36.4922Z" fill="white" stroke="#787878" stroke-miterlimit="22.9256"/>
<path fill-rule="evenodd" clip-rule="evenodd" d="M18.259 34.8689L18.2806 36.6274C19.2406 36.9144 19.5144 37.2296 20.407 36.9213C20.9603 36.4726 20.7632 34.4845 20.5983 33.6968C19.363 33.1265 18.259 33.1506 18.259 34.8689Z" fill="white" stroke="#787878" stroke-miterlimit="22.9256"/>
<path fill-rule="evenodd" clip-rule="evenodd" d="M34.0471 10.4758C36.7218 10.9511 39.0088 10.9918 41.6226 11.6836C44.1036 12.3403 45.851 13.1779 48.1322 13.9939C47.6708 12.9628 47.3445 12.9308 45.1785 12.1489L37.6165 10.3027C36.8898 10.2007 36.0392 10.086 35.3123 10.0324C33.4769 9.89735 34.3214 10.2118 34.0471 10.4758Z" fill="#306CFE" stroke="#306CFE" stroke-miterlimit="22.9256"/>
<defs>
<filter id="filter0_d_506_23817" x="0" y="0" width="64" height="64" filterUnits="userSpaceOnUse" color-interpolation-filters="sRGB">
<feFlood flood-opacity="0" result="BackgroundImageFix"/>
<feColorMatrix in="SourceAlpha" type="matrix" values="0 0 0 0 0 0 0 0 0 0 0 0 0 0 0 0 0 0 127 0" result="hardAlpha"/>
<feOffset dy="4"/>
<feGaussianBlur stdDeviation="2"/>
<feComposite in2="hardAlpha" operator="out"/>
<feColorMatrix type="matrix" values="0 0 0 0 0 0 0 0 0 0 0 0 0 0 0 0 0 0 0.25 0"/>
<feBlend mode="normal" in2="BackgroundImageFix" result="effect1_dropShadow_506_23817"/>
<feBlend mode="normal" in="SourceGraphic" in2="effect1_dropShadow_506_23817" result="shape"/>
</filter>
</defs>
</svg>
