<svg width="64" height="64" viewBox="0 0 64 64" fill="none" xmlns="http://www.w3.org/2000/svg">
<g filter="url(#filter0_d_506_23843)">
<path d="M32 56C47.464 56 60 43.464 60 28C60 12.536 47.464 0 32 0C16.536 0 4 12.536 4 28C4 43.464 16.536 56 32 56Z" fill="white"/>
</g>
<path d="M46.5899 27.071C47.4766 27.071 48.2137 27.6958 48.3035 28.5252C48.5031 30.332 49.0203 31.5204 49.6589 31.6269C49.7241 31.6384 49.7723 31.6312 49.8397 31.5707C50.2446 31.2139 50.6329 29.6289 50.5039 26.252C50.4724 25.4642 50.6756 24.7047 51.0838 24.0592C51.7394 23.0247 52.6728 21.088 51.5732 19.7369C50.4778 18.3939 48.5929 18.9785 47.566 19.4454C46.9445 19.7279 46.232 19.7279 45.6105 19.4454C44.5858 18.9785 42.7008 18.3939 41.6033 19.7369C40.5037 21.088 41.4371 23.0247 42.0923 24.0592C42.5009 24.7036 42.7041 25.4631 42.6726 26.252C42.5436 29.6282 42.9319 31.2129 43.3369 31.5707C43.4075 31.6312 43.4513 31.6377 43.5165 31.6269C44.1551 31.5204 44.6756 30.332 44.873 28.5245C44.9661 27.6958 45.7035 27.071 46.5899 27.071ZM49.7049 32.5324C49.6433 32.5324 49.5781 32.527 49.5129 32.5165C48.0981 32.281 47.5885 30.2693 47.4056 28.6231C47.3665 28.2511 47.014 27.9722 46.5899 27.9722C46.1625 27.9722 45.8101 28.2525 45.7709 28.6231C45.5902 30.2693 45.0784 32.2821 43.6658 32.5165C43.3257 32.5733 43.0048 32.4795 42.74 32.247C41.9725 31.5685 41.6461 29.5402 41.7729 26.2194C41.7939 25.6123 41.6425 25.0321 41.3306 24.5417C40.5453 23.3029 39.4478 20.9568 40.9054 19.1668C42.3854 17.3558 44.7238 18.0505 45.9839 18.6249C46.37 18.7999 46.8087 18.7999 47.1912 18.6249C48.4549 18.0494 50.7934 17.3558 52.2712 19.1668C53.7309 20.9568 52.6312 23.3029 51.8459 24.5417C51.5341 25.0321 51.3812 25.6124 51.4073 26.2183C51.5304 29.5416 51.2041 31.5693 50.4366 32.2481C50.2221 32.4353 49.9718 32.5324 49.7049 32.5324Z" fill="#787878" stroke="#787878" stroke-miterlimit="22.9256"/>
<path d="M54.5501 36.4442C54.2998 36.4442 54.1003 36.2421 54.1003 35.9932V28.2249C54.1003 27.5338 53.5649 26.9731 52.9093 26.9731L50.9649 26.9756C50.7147 26.9756 50.5126 26.7735 50.5126 26.5243C50.5126 26.2766 50.7147 26.0734 50.9649 26.0734L52.9093 26.0723C54.063 26.0723 55 27.0372 55 28.2249V35.9932C55 36.2421 54.7979 36.4442 54.5501 36.4442Z" fill="#787878" stroke="#787878" stroke-miterlimit="22.9256"/>
<path d="M17.4134 27.071C18.2983 27.071 19.0357 27.6958 19.1266 28.5246C19.323 30.332 19.8435 31.5204 20.4821 31.6269C20.5451 31.6377 20.5943 31.6305 20.6628 31.5707C21.0677 31.2129 21.456 29.6282 21.326 26.252C21.2978 25.4632 21.4988 24.7036 21.9059 24.0592C22.5626 23.0247 23.496 21.0891 22.3963 19.7359C21.3014 18.3939 19.4161 18.9785 18.3881 19.4454C17.7669 19.729 17.0555 19.7279 16.434 19.4454C15.406 18.9785 13.5243 18.3928 12.4268 19.737C11.3261 21.0891 12.2609 23.0247 12.9162 24.0592C13.3244 24.7036 13.5265 25.4621 13.4961 26.252C13.3661 29.6282 13.7543 31.2129 14.1593 31.5707C14.2299 31.6312 14.2785 31.6388 14.3401 31.6269C14.9786 31.5204 15.4991 30.332 15.6969 28.5246C15.7885 27.6958 16.526 27.071 17.4134 27.071ZM20.527 32.5324C20.4628 32.5324 20.4002 32.5274 20.3361 32.5165C18.9213 32.2821 18.4084 30.2693 18.2291 28.6231C18.1889 28.2525 17.8375 27.9722 17.4134 27.9722C16.9849 27.9722 16.6336 28.2525 16.5945 28.6231C16.4137 30.2693 15.9019 32.2821 14.4893 32.5165C14.1459 32.5715 13.8282 32.4795 13.5635 32.247C12.7948 31.5686 12.4685 29.5402 12.5953 26.2194C12.6177 25.6124 12.466 25.031 12.153 24.5421C11.3688 23.3029 10.2681 20.958 11.7289 19.1668C13.2056 17.3558 15.544 18.0494 16.8074 18.625C17.1936 18.7999 17.6322 18.7999 18.015 18.625C19.2781 18.0505 21.6165 17.3547 23.0932 19.1668C24.554 20.9569 23.4547 23.3029 22.6691 24.5421C22.3561 25.0321 22.2044 25.6124 22.2268 26.2194C22.3558 29.5402 22.0294 31.5686 21.2586 32.247C21.0453 32.4353 20.795 32.5324 20.527 32.5324Z" fill="#787878" stroke="#787878" stroke-miterlimit="22.9256"/>
<path d="M9.44986 36.4442C9.20211 36.4442 9 36.2421 9 35.9932V28.2249C9 27.0372 9.93704 26.0723 11.0903 26.0723L13.0372 26.0734C13.2853 26.0734 13.4874 26.2766 13.4874 26.5243C13.4874 26.7735 13.2853 26.9756 13.035 26.9756L11.0903 26.9731C10.434 26.9731 9.90224 27.5338 9.90224 28.2249V35.9932C9.90224 36.2421 9.70015 36.4442 9.44986 36.4442Z" fill="#787878" stroke="#787878" stroke-miterlimit="22.9256"/>
<path d="M32.5122 32.5348H31.4875C29.9278 32.5348 28.4681 31.9042 27.3764 30.7593C26.5549 29.9063 26.0061 28.8309 25.7863 27.653C25.7131 27.2524 25.3925 26.9731 25.0039 26.9731L21.7914 26.9756C21.5401 26.9756 21.3383 26.7735 21.3383 26.5243C21.3383 26.2766 21.5401 26.0734 21.7882 26.0734L25.0006 26.0723C25.821 26.0723 26.5234 26.6681 26.6759 27.4889C26.8588 28.4933 27.3257 29.4086 28.0269 30.1356C28.9495 31.1016 30.1759 31.6329 31.4875 31.6329H32.5122C33.8226 31.6329 35.0527 31.1016 35.9727 30.1374C36.6729 29.4079 37.1405 28.4926 37.3234 27.4889C37.4748 26.6681 38.1782 26.0723 38.9975 26.0723L42.2111 26.0734C42.4581 26.0734 42.6613 26.2766 42.6613 26.5243C42.6613 26.7735 42.4581 26.9756 42.2111 26.9756L38.9975 26.9731C38.606 26.9731 38.2861 27.2524 38.2119 27.653C37.9953 28.8309 37.4465 29.9052 36.6225 30.7607C35.5341 31.9042 34.0708 32.5348 32.5122 32.5348Z" fill="#306CFE" stroke="#306CFE" stroke-miterlimit="22.9256"/>
<defs>
<filter id="filter0_d_506_23843" x="0" y="0" width="64" height="64" filterUnits="userSpaceOnUse" color-interpolation-filters="sRGB">
<feFlood flood-opacity="0" result="BackgroundImageFix"/>
<feColorMatrix in="SourceAlpha" type="matrix" values="0 0 0 0 0 0 0 0 0 0 0 0 0 0 0 0 0 0 127 0" result="hardAlpha"/>
<feOffset dy="4"/>
<feGaussianBlur stdDeviation="2"/>
<feComposite in2="hardAlpha" operator="out"/>
<feColorMatrix type="matrix" values="0 0 0 0 0 0 0 0 0 0 0 0 0 0 0 0 0 0 0.25 0"/>
<feBlend mode="normal" in2="BackgroundImageFix" result="effect1_dropShadow_506_23843"/>
<feBlend mode="normal" in="SourceGraphic" in2="effect1_dropShadow_506_23843" result="shape"/>
</filter>
</defs>
</svg>
