<svg width="64" height="64" viewBox="0 0 64 64" fill="none" xmlns="http://www.w3.org/2000/svg">
<g filter="url(#filter0_d_506_23973)">
<path d="M32 56C47.464 56 60 43.464 60 28C60 12.536 47.464 0 32 0C16.536 0 4 12.536 4 28C4 43.464 16.536 56 32 56Z" fill="white"/>
</g>
<path d="M26.0921 34.0664C26.1817 34.0664 26.2736 34.0981 26.3458 34.1609C28.5548 36.0814 30.0859 38.6022 30.7722 41.4487L32.2454 47.5589C32.3495 47.9913 32.6961 48.1822 32.9864 48.2178C33.2738 48.2477 33.6567 48.1485 33.8593 47.7539L36.7889 42.0914C37.5685 40.5826 37.9813 38.8877 37.9813 37.188C37.9813 36.4421 37.9023 35.6947 37.7469 34.9662L37.4758 33.6861C36.8691 30.8364 37.2145 27.8144 38.4463 25.1741L39.709 22.4684C40.8099 20.1067 40.5966 17.2917 39.1525 15.1243C37.4392 12.5581 34.3822 11.3052 31.3676 11.9369L26.1722 13.0204C26.1182 13.031 26.065 13.031 26.012 13.0204L20.8134 11.9369C17.8048 11.3109 14.7418 12.5581 13.0315 15.1243C11.5843 17.2917 11.3722 20.1067 12.473 22.4691L13.7377 25.1733C14.9694 27.8144 15.3127 30.8364 14.7081 33.6872L14.4341 34.9654C14.2798 35.6947 14.1997 36.4421 14.1997 37.188C14.1997 38.8877 14.6133 40.5826 15.392 42.0914L18.3216 47.7539C18.5251 48.1485 18.9102 48.2487 19.1976 48.2178C19.486 48.1822 19.8312 47.9913 19.9355 47.5589L21.4115 41.4498C22.0984 38.6022 23.6273 36.0814 25.8373 34.1609C25.9107 34.0981 26.0003 34.0664 26.0921 34.0664ZM33.0953 48.9992C33.0277 48.9992 32.9622 48.9954 32.8916 48.9878C32.205 48.9039 31.656 48.4147 31.4912 47.7403L30.0182 41.6301C29.396 39.0515 28.0417 36.7567 26.0921 34.973C24.1425 36.7567 22.7872 39.0515 22.163 41.6312L20.6901 47.7403C20.5279 48.4147 19.979 48.9039 19.2891 48.9878C18.6025 49.0706 17.9512 48.7262 17.6328 48.1097L14.7051 42.4472C13.8689 40.8294 13.4259 39.0121 13.4259 37.188C13.4259 36.3881 13.5109 35.5855 13.6749 34.8043L13.9479 33.5251C14.5191 30.8394 14.1948 27.9899 13.0334 25.5011L11.7707 22.7973C10.5541 20.1898 10.7915 17.0853 12.3861 14.694C14.2719 11.8636 17.6426 10.4822 20.9736 11.1778L26.0921 12.2447L31.2084 11.1778C34.5414 10.4822 37.9091 11.8636 39.7959 14.694C41.3925 17.0853 41.6268 20.1898 40.4122 22.7962L39.1476 25.5022C37.9862 27.9899 37.6619 30.8394 38.235 33.5251L38.5061 34.8051C38.6731 35.5855 38.7578 36.3881 38.7578 37.188C38.7578 39.0121 38.3151 40.8294 37.4788 42.4472L34.549 48.1097C34.2635 48.6654 33.707 48.9992 33.0953 48.9992Z" fill="#787878" stroke="#787878" stroke-miterlimit="22.9256"/>
<path d="M50.1651 11.3594H30.0437V36.5113H50.1651V11.3594Z" fill="white" stroke="#306CFE" stroke-width="2" stroke-miterlimit="22.9256"/>
<path d="M36.3193 26.0923V18.7754H38.7918C39.3633 18.7754 39.8326 18.8729 40.1993 19.0682C40.5662 19.261 40.8378 19.5266 41.0138 19.8648C41.1901 20.2032 41.2784 20.5878 41.2784 21.0189C41.2784 21.4499 41.1901 21.8324 41.0138 22.1659C40.8378 22.4992 40.5673 22.7613 40.2031 22.9519C39.8386 23.1399 39.3728 23.2341 38.8059 23.2341H36.8052V22.4337H38.7774C39.168 22.4337 39.4825 22.3767 39.7207 22.2623C39.9613 22.148 40.1352 21.9861 40.2422 21.7764C40.3519 21.5643 40.4065 21.3119 40.4065 21.0189C40.4065 20.7261 40.3519 20.4699 40.2422 20.2508C40.1327 20.0316 39.9575 19.8626 39.7169 19.7434C39.4765 19.622 39.1585 19.5611 38.763 19.5611H37.2053V26.0923H36.3193ZM39.7636 22.8052L41.5641 26.0923H40.5353L38.763 22.8052H39.7636Z" fill="#787878" stroke="#787878" stroke-miterlimit="22.9256"/>
<path d="M40.9457 24.9805L42.0726 26.9037L43.1995 24.9805H44.0325L42.5134 27.3323L44.0325 29.6842H43.1995L42.0726 27.859L40.9457 29.6842H40.1127L41.6071 27.3323L40.1127 24.9805H40.9457Z" fill="#787878" stroke="#787878" stroke-miterlimit="22.9256"/>
<defs>
<filter id="filter0_d_506_23973" x="0" y="0" width="64" height="64" filterUnits="userSpaceOnUse" color-interpolation-filters="sRGB">
<feFlood flood-opacity="0" result="BackgroundImageFix"/>
<feColorMatrix in="SourceAlpha" type="matrix" values="0 0 0 0 0 0 0 0 0 0 0 0 0 0 0 0 0 0 127 0" result="hardAlpha"/>
<feOffset dy="4"/>
<feGaussianBlur stdDeviation="2"/>
<feComposite in2="hardAlpha" operator="out"/>
<feColorMatrix type="matrix" values="0 0 0 0 0 0 0 0 0 0 0 0 0 0 0 0 0 0 0.25 0"/>
<feBlend mode="normal" in2="BackgroundImageFix" result="effect1_dropShadow_506_23973"/>
<feBlend mode="normal" in="SourceGraphic" in2="effect1_dropShadow_506_23973" result="shape"/>
</filter>
</defs>
</svg>
