<svg width="64" height="64" viewBox="0 0 64 64" fill="none" xmlns="http://www.w3.org/2000/svg">
<g filter="url(#filter0_d_506_23980)">
<path d="M32 56C47.464 56 60 43.464 60 28C60 12.536 47.464 0 32 0C16.536 0 4 12.536 4 28C4 43.464 16.536 56 32 56Z" fill="white"/>
</g>
<path d="M32.3544 32.8067C32.4456 32.8067 32.5387 32.8391 32.6125 32.9029C34.8599 34.8569 36.4176 37.4214 37.1161 40.3177L38.615 46.534C38.7208 46.9736 39.0734 47.1679 39.3688 47.2044C39.6611 47.2348 40.0508 47.1336 40.2569 46.7321L43.2374 40.9712C44.0305 39.4362 44.4505 37.7119 44.4505 35.9826C44.4505 35.2241 44.3701 34.4633 44.212 33.7225L43.9362 32.4202C43.3189 29.5209 43.6704 26.4459 44.9236 23.7597L46.2082 21.0069C47.3282 18.6045 47.1113 15.7406 45.642 13.5352C43.8989 10.9247 40.7888 9.64972 37.7218 10.2927L33.4503 12.0662C33.1096 13.3006 31.2231 12.3948 31.8846 12.5327L26.9839 10.2927C23.9228 9.6558 20.8069 10.9247 19.0668 13.5352C17.5945 15.7406 17.3787 18.6045 18.4984 21.0077L19.7853 23.7589C21.0384 26.4459 21.3877 29.5209 20.7723 32.421L20.4938 33.7214C20.3368 34.4633 20.2553 35.2241 20.2553 35.9826C20.2553 37.7119 20.6761 39.4362 21.4684 40.9712L24.4489 46.7321C24.6558 47.1336 25.0474 47.2356 25.34 47.2044C25.6335 47.1679 25.9847 46.9736 26.0908 46.534L27.5924 40.3185C28.2912 37.4215 29.8467 34.8569 32.0952 32.9029C32.1698 32.8391 32.261 32.8067 32.3544 32.8067ZM39.4796 47.9994C39.4108 47.9994 39.3442 47.9952 39.2723 47.9875C38.5738 47.9021 38.0153 47.4044 37.8476 46.7186L36.3488 40.5023C35.7157 37.8788 34.3379 35.5438 32.3544 33.7291C30.3709 35.5438 28.992 37.8788 28.357 40.5031L26.8585 46.7186C26.6935 47.4044 26.135 47.9021 25.4332 47.9875C24.7346 48.0721 24.072 47.7214 23.7481 47.0944L20.7695 41.3335C19.9187 39.6874 19.468 37.8384 19.468 35.9826C19.468 35.1691 19.5545 34.3525 19.7214 33.5575L19.9991 32.256C20.58 29.5239 20.2503 26.6247 19.0687 24.0924L17.7841 21.3415C16.5464 18.6888 16.7879 15.5306 18.4102 13.0975C20.3288 10.2181 23.595 9.58506 26.9839 10.2927L32.0952 12.6291L37.7218 10.2927C41.1127 9.58506 44.377 10.2181 46.2966 13.0975C47.9209 15.5306 48.1594 18.6887 46.9236 21.3407L45.637 24.0935C44.4554 26.6247 44.1255 29.5239 44.7086 32.256L44.9844 33.5584C45.1543 34.3525 45.2405 35.1691 45.2405 35.9826C45.2405 37.8384 44.7901 39.6874 43.9393 41.3335L40.9585 47.0944C40.6681 47.6598 40.1019 47.9994 39.4796 47.9994Z" fill="#787878"/>
<path d="M37.7218 10.2927C40.7888 9.64972 43.8989 10.9247 45.642 13.5352C47.1113 15.7406 47.3282 18.6045 46.2082 21.0069L44.9236 23.7597C43.6704 26.4459 43.3189 29.5209 43.9362 32.4202L44.212 33.7225C44.3701 34.4633 44.4505 35.2241 44.4505 35.9826C44.4505 37.7119 44.0305 39.4362 43.2374 40.9712L40.2569 46.7321C40.0508 47.1336 39.6611 47.2348 39.3688 47.2044C39.0734 47.1679 38.7208 46.9736 38.615 46.534L37.1161 40.3177C36.4176 37.4214 34.8599 34.8569 32.6125 32.9029C32.5387 32.8391 32.4456 32.8067 32.3544 32.8067C32.261 32.8067 32.1698 32.8391 32.0952 32.9029C29.8467 34.8569 28.2912 37.4215 27.5924 40.3185L26.0908 46.534C25.9847 46.9736 25.6335 47.1679 25.34 47.2044C25.0474 47.2356 24.6558 47.1336 24.4489 46.7321L21.4684 40.9712C20.6761 39.4362 20.2553 37.7119 20.2553 35.9826C20.2553 35.2241 20.3368 34.4633 20.4938 33.7214L20.7723 32.421C21.3877 29.5209 21.0384 26.4459 19.7853 23.7589L18.4984 21.0077C17.3787 18.6045 17.5945 15.7406 19.0668 13.5352C20.8069 10.9247 23.9228 9.6558 26.9839 10.2927M37.7218 10.2927L33.4503 12.0662C33.1096 13.3006 31.2231 12.3948 31.8846 12.5327L26.9839 10.2927M37.7218 10.2927L32.0952 12.6291L26.9839 10.2927M37.7218 10.2927C41.1127 9.58506 44.377 10.2181 46.2966 13.0975C47.9209 15.5306 48.1594 18.6887 46.9236 21.3407L45.637 24.0935C44.4554 26.6247 44.1255 29.5239 44.7086 32.256L44.9844 33.5584C45.1543 34.3525 45.2405 35.1691 45.2405 35.9826C45.2405 37.8384 44.7901 39.6874 43.9393 41.3335L40.9585 47.0944C40.6681 47.6598 40.1019 47.9994 39.4796 47.9994C39.4108 47.9994 39.3442 47.9952 39.2723 47.9875C38.5738 47.9021 38.0153 47.4044 37.8476 46.7186L36.3488 40.5023C35.7157 37.8788 34.3379 35.5438 32.3544 33.7291C30.3709 35.5438 28.992 37.8788 28.357 40.5031L26.8585 46.7186C26.6935 47.4044 26.135 47.9021 25.4332 47.9875C24.7346 48.0721 24.072 47.7214 23.7481 47.0944L20.7695 41.3335C19.9187 39.6874 19.468 37.8384 19.468 35.9826C19.468 35.1691 19.5545 34.3525 19.7214 33.5575L19.9991 32.256C20.58 29.5239 20.2503 26.6247 19.0687 24.0924L17.7841 21.3415C16.5464 18.6888 16.7879 15.5306 18.4102 13.0975C20.3288 10.2181 23.595 9.58506 26.9839 10.2927" stroke="#787878" stroke-miterlimit="22.9256"/>
<path fill-rule="evenodd" clip-rule="evenodd" d="M23.4403 10.3895C24.1624 9.84125 25.452 9.93134 26.984 10.2928L32.0952 12.6291L37.7219 10.2928C39.0088 10.0667 39.9872 10.0278 40.7018 10.1488C38.1162 18.8673 26.0257 19.0359 23.4403 10.3895Z" stroke="#306CFE" stroke-width="2" stroke-miterlimit="22.9256"/>
<defs>
<filter id="filter0_d_506_23980" x="0" y="0" width="64" height="64" filterUnits="userSpaceOnUse" color-interpolation-filters="sRGB">
<feFlood flood-opacity="0" result="BackgroundImageFix"/>
<feColorMatrix in="SourceAlpha" type="matrix" values="0 0 0 0 0 0 0 0 0 0 0 0 0 0 0 0 0 0 127 0" result="hardAlpha"/>
<feOffset dy="4"/>
<feGaussianBlur stdDeviation="2"/>
<feComposite in2="hardAlpha" operator="out"/>
<feColorMatrix type="matrix" values="0 0 0 0 0 0 0 0 0 0 0 0 0 0 0 0 0 0 0.25 0"/>
<feBlend mode="normal" in2="BackgroundImageFix" result="effect1_dropShadow_506_23980"/>
<feBlend mode="normal" in="SourceGraphic" in2="effect1_dropShadow_506_23980" result="shape"/>
</filter>
</defs>
</svg>
